<svg width="29" height="29" viewBox="0 0 29 29" fill="none" xmlns="http://www.w3.org/2000/svg">
<path d="M3.48 29C2.55705 29 1.67189 28.6334 1.01927 27.9807C0.366642 27.3281 0 26.443 0 25.52V3.48C0 2.55705 0.366642 1.6719 1.01927 1.01927C1.67189 0.366642 2.55705 0 3.48 0H25.52C26.443 0 27.3281 0.366642 27.9807 1.01927C28.6334 1.6719 29 2.55705 29 3.48V25.52C29 26.443 28.6334 27.3281 27.9807 27.9807C27.3281 28.6334 26.443 29 25.52 29H3.48ZM1.16 3.48V25.52C1.16 26.1353 1.40443 26.7254 1.83951 27.1605C2.2746 27.5956 2.8647 27.84 3.48 27.84H25.52C26.1353 27.84 26.7254 27.5956 27.1605 27.1605C27.5956 26.7254 27.84 26.1353 27.84 25.52V3.48C27.84 2.8647 27.5956 2.2746 27.1605 1.83951C26.7254 1.40443 26.1353 1.16 25.52 1.16H3.48C2.8647 1.16 2.2746 1.40443 1.83951 1.83951C1.40443 2.2746 1.16 2.8647 1.16 3.48ZM7.02844 18.1668C6.97317 17.09 7.24496 16.0217 7.80809 15.1023C8.37122 14.1828 9.19935 13.4553 10.1836 13.0152C10.2041 13.0069 10.2263 13.0039 10.2482 13.0063C10.2702 13.0087 10.2911 13.0166 10.3093 13.0291C10.3275 13.0416 10.3422 13.0585 10.3523 13.0781C10.3623 13.0978 10.3674 13.1196 10.3669 13.1416V14.812C10.3676 14.8345 10.3628 14.8569 10.3529 14.8771C10.343 14.8973 10.3283 14.9148 10.3101 14.928C9.79171 15.2905 9.37236 15.777 9.0903 16.3431C8.80825 16.9092 8.67247 17.537 8.69536 18.1691C8.68389 19.2164 9.08805 20.2256 9.81926 20.9755C10.5505 21.7254 11.5491 22.1549 12.5964 22.1699C13.6218 22.1694 14.6056 21.7648 15.3347 21.044C16.0638 20.3231 16.4795 19.344 16.4917 18.3187C16.4929 18.2842 16.5073 18.2515 16.5319 18.2274C16.5565 18.2032 16.5895 18.1894 16.624 18.1888H17.0265C17.0505 18.1894 17.0739 18.1963 17.0943 18.209C17.1147 18.2216 17.1313 18.2395 17.1425 18.2607L17.8976 19.7444C17.9138 19.7755 17.9175 19.8115 17.9081 19.8453C17.5737 20.9996 16.8757 22.0152 15.9179 22.741C14.9601 23.4669 13.7935 23.8642 12.5918 23.874C11.0975 23.8541 9.67218 23.2418 8.62901 22.1717C7.58585 21.1016 7.01017 19.6611 7.02844 18.1668ZM19.8128 21.7558C19.713 21.7244 19.6205 21.6734 19.5408 21.6056C19.4611 21.5379 19.3958 21.4548 19.3488 21.3614L17.4696 17.6912C17.4591 17.6693 17.4427 17.6508 17.4221 17.6379C17.4016 17.625 17.3779 17.6181 17.3536 17.6181H12.0164C11.7257 17.6153 11.4477 17.4981 11.2427 17.2919C11.0377 17.0856 10.9223 16.8069 10.9214 16.5161V10.7961C10.9179 10.5019 11.0299 10.2181 11.2333 10.0056C11.4368 9.79302 11.7154 9.66871 12.0095 9.65932C12.1601 9.66052 12.309 9.69156 12.4476 9.75064C12.5862 9.80972 12.7116 9.89568 12.8168 10.0035C12.922 10.1114 13.0047 10.239 13.0603 10.379C13.1158 10.5191 13.1431 10.6687 13.1405 10.8193V12.3668C13.1402 12.3843 13.1434 12.4018 13.1499 12.4181C13.1564 12.4344 13.1661 12.4492 13.1784 12.4618C13.1907 12.4743 13.2054 12.4842 13.2216 12.491C13.2378 12.4978 13.2552 12.5013 13.2727 12.5013H17.3211C17.5417 12.5044 17.7522 12.5938 17.9075 12.7504C18.0628 12.907 18.1505 13.1183 18.1517 13.3388C18.1534 13.4519 18.1326 13.5641 18.0906 13.6691C18.0486 13.7741 17.9862 13.8697 17.9071 13.9504C17.8279 14.0311 17.7335 14.0953 17.6293 14.1392C17.5251 14.1832 17.4133 14.2061 17.3002 14.2065H13.2727C13.255 14.2068 13.2376 14.2106 13.2214 14.2176C13.2052 14.2247 13.1905 14.2349 13.1782 14.2476C13.166 14.2603 13.1563 14.2753 13.1498 14.2917C13.1433 14.3082 13.1402 14.3257 13.1405 14.3434V15.2088C13.1402 15.2264 13.1433 15.244 13.1498 15.2604C13.1563 15.2769 13.166 15.2919 13.1782 15.3046C13.1905 15.3173 13.2052 15.3275 13.2214 15.3345C13.2376 15.3416 13.255 15.3453 13.2727 15.3456H17.516C17.7106 15.3463 17.9011 15.4009 18.0666 15.5033C18.232 15.6056 18.3659 15.7518 18.4533 15.9256L20.8081 20.525C20.9095 20.7268 20.9294 20.9598 20.8638 21.1758C20.8324 21.282 20.7805 21.3809 20.7108 21.4669C20.6411 21.5529 20.5551 21.6243 20.4578 21.6769L20.4102 21.7024C20.2989 21.7634 20.174 21.7953 20.0471 21.7952C19.9675 21.7941 19.8884 21.7808 19.8128 21.7558ZM10.4133 7.39848C10.4211 7.07324 10.5246 6.75752 10.711 6.49088C10.8974 6.22423 11.1584 6.01852 11.4611 5.8995C11.7639 5.78049 12.0951 5.75346 12.4132 5.82182C12.7312 5.89017 13.0221 6.05086 13.2492 6.28376C13.4764 6.51666 13.6297 6.81142 13.6901 7.13109C13.7505 7.45077 13.7152 7.78116 13.5887 8.08087C13.4621 8.38059 13.25 8.6363 12.9788 8.81597C12.7075 8.99564 12.3893 9.09128 12.064 9.09092C11.8445 9.08819 11.6277 9.04226 11.4259 8.95572C11.2241 8.86919 11.0414 8.74377 10.8881 8.58661C10.7348 8.42945 10.614 8.24363 10.5325 8.03977C10.4511 7.83591 10.4106 7.618 10.4133 7.39848Z" fill="#006DF6"/>
<path d="M22.5541 3.45072C22.6916 3.45025 22.8278 3.47867 22.9548 3.53431C23.0817 3.58996 23.1967 3.67171 23.2931 3.77477C23.3896 3.87782 23.4654 4.0001 23.5163 4.13441C23.5671 4.26872 23.5919 4.41237 23.5892 4.5569C23.5924 4.7014 23.568 4.8451 23.5175 4.97956C23.4671 5.11403 23.3916 5.23653 23.2955 5.33989C23.1994 5.44326 23.0846 5.52538 22.9579 5.58146C22.8312 5.63753 22.6951 5.66641 22.5576 5.66641C22.4201 5.66641 22.284 5.63753 22.1573 5.58146C22.0306 5.52538 21.9158 5.44326 21.8197 5.33989C21.7236 5.23653 21.6481 5.11403 21.5976 4.97956C21.5472 4.8451 21.5228 4.7014 21.526 4.5569C21.5233 4.41298 21.5478 4.26994 21.5983 4.13611C21.6487 4.00227 21.7239 3.88033 21.8196 3.77737C21.9153 3.67442 22.0295 3.59252 22.1556 3.53644C22.2817 3.48035 22.4172 3.45122 22.5541 3.45072ZM22.6444 5.89622C22.7796 5.90342 22.912 5.93963 23.0334 6.00263C23.1548 6.06562 23.2627 6.15406 23.3504 6.26251C23.3504 6.26251 25.1785 8.07655 25.2934 8.31025C25.4285 9.1212 25.5197 9.93955 25.5665 10.7614C25.5867 10.8208 25.5929 10.8845 25.5845 10.947C25.576 11.0095 25.5532 11.0689 25.518 11.1201C25.4828 11.1712 25.4362 11.2125 25.3824 11.2405C25.3285 11.2684 25.269 11.2822 25.209 11.2805C25.1455 11.2907 25.0807 11.2876 25.0183 11.2714C24.956 11.2552 24.8973 11.2263 24.8456 11.1862C24.7939 11.1461 24.7502 11.0957 24.7171 11.0378C24.684 10.98 24.6621 10.9158 24.6527 10.849L24.4849 8.96081L23.7944 8.24958L24.1578 11.5979H24.1813L24.3053 13.4602L25.4831 16.2422C25.5581 16.4195 25.5631 16.6208 25.497 16.8019C25.4309 16.983 25.299 17.1291 25.1304 17.208C24.9618 17.2869 24.7703 17.2921 24.5981 17.2226C24.4258 17.153 24.2868 17.0144 24.2118 16.8372L22.9827 13.9338C22.9662 13.895 22.953 13.8548 22.9432 13.8136H22.9341L22.9287 13.7372C22.9244 13.7039 22.9223 13.6703 22.9223 13.6366L22.8197 12.09L21.5329 16.8091C21.482 16.9953 21.3629 17.1527 21.2016 17.2466C21.0404 17.3405 20.8502 17.3631 20.6731 17.3097C20.4959 17.2562 20.3462 17.1309 20.2569 16.9614C20.1676 16.7918 20.1461 16.592 20.1969 16.4057L21.8594 10.299L21.7146 8.38216L21.1765 9.23497L19.3911 10.2625C19.3404 10.2881 19.2852 10.3024 19.2289 10.3045C19.1727 10.3065 19.1167 10.2964 19.0644 10.2746C19.0121 10.2528 18.9646 10.2198 18.925 10.1778C18.8854 10.1358 18.8545 10.0856 18.8343 10.0305C18.6429 9.61193 18.9064 9.42879 18.9064 9.42879L20.5357 8.49565L21.8092 6.3288C21.8961 6.20363 22.0082 6.10017 22.1375 6.02578C22.2669 5.9514 22.4102 5.90792 22.5573 5.89847C22.5887 5.89622 22.6193 5.89622 22.6492 5.89847L22.6444 5.89622Z" fill="#006DF6"/>
</svg>
