<svg width="29" height="29" viewBox="0 0 29 29" fill="none" xmlns="http://www.w3.org/2000/svg">
<path d="M3.48 29C2.55705 29 1.6719 28.6334 1.01927 27.9807C0.366642 27.3281 0 26.443 0 25.52L0 3.48C0 2.55705 0.366642 1.6719 1.01927 1.01927C1.6719 0.366642 2.55705 0 3.48 0L25.52 0C26.443 0 27.3281 0.366642 27.9807 1.01927C28.6334 1.6719 29 2.55705 29 3.48V25.52C29 26.443 28.6334 27.3281 27.9807 27.9807C27.3281 28.6334 26.443 29 25.52 29H3.48ZM1.16 3.48V25.52C1.16 26.1353 1.40443 26.7254 1.83951 27.1605C2.2746 27.5956 2.8647 27.84 3.48 27.84H25.52C26.1353 27.84 26.7254 27.5956 27.1605 27.1605C27.5956 26.7254 27.84 26.1353 27.84 25.52V3.48C27.84 2.8647 27.5956 2.2746 27.1605 1.83951C26.7254 1.40443 26.1353 1.16 25.52 1.16H3.48C2.8647 1.16 2.2746 1.40443 1.83951 1.83951C1.40443 2.2746 1.16 2.8647 1.16 3.48ZM16.82 20.677C16.8197 20.1755 16.9371 19.6809 17.1628 19.2331C17.3884 18.7852 17.716 18.3965 18.1192 18.0983C18.1442 18.0794 18.1618 18.0524 18.169 18.0219C18.1762 17.9914 18.1725 17.9594 18.1586 17.9313L18.1111 17.8385C18.1018 17.8202 18.0884 17.8042 18.0719 17.7919C18.0555 17.7796 18.0364 17.7713 18.0162 17.7676C17.996 17.7639 17.9752 17.7649 17.9554 17.7706C17.9357 17.7762 17.9175 17.7864 17.9023 17.8002L14.7622 20.6596C14.6624 20.7501 14.5719 20.8498 14.4803 20.9473C14.4378 20.9937 14.3846 21.0291 14.3255 21.0505C14.2663 21.072 14.2028 21.0787 14.1404 21.0702V21.0865L12.274 21.0702C12.2419 21.0706 12.2111 21.0825 12.1872 21.1038C12.1633 21.1252 12.148 21.1544 12.144 21.1862C12.0419 21.7799 11.7724 22.3321 11.3671 22.7777C10.9619 23.2234 10.4377 23.5441 9.85642 23.7019C9.2751 23.8598 8.66077 23.8484 8.08574 23.6689C7.5107 23.4895 6.99887 23.1496 6.61049 22.6891C6.2221 22.2287 5.97332 21.6668 5.89341 21.0698C5.8135 20.4727 5.9058 19.8653 6.15943 19.3189C6.41306 18.7725 6.81748 18.3099 7.3251 17.9856C7.83272 17.6613 8.42242 17.4887 9.0248 17.4882C9.60211 17.4882 10.168 17.6488 10.6592 17.9522C10.6838 17.9669 10.7124 17.9732 10.7408 17.9703C10.7693 17.9674 10.796 17.9553 10.817 17.9359L11.919 16.9348C11.9328 16.9223 11.9438 16.9071 11.9514 16.8902C11.959 16.8732 11.9629 16.8548 11.9631 16.8362V16.4627C11.9631 16.4273 11.949 16.3934 11.924 16.3684C11.899 16.3434 11.8651 16.3293 11.8297 16.3293H11.2996C11.1954 16.3275 11.0963 16.2843 11.0239 16.2094C10.9516 16.1344 10.912 16.0338 10.9139 15.9297C10.9157 15.8256 10.9588 15.7264 11.0338 15.6541C11.1087 15.5818 11.2093 15.5422 11.3135 15.544H12.2902C12.3324 15.5367 12.3756 15.5367 12.4178 15.544H13.4061C13.5103 15.546 13.6093 15.5893 13.6816 15.6643C13.7538 15.7394 13.7932 15.8401 13.7912 15.9442C13.7892 16.0483 13.746 16.1474 13.6709 16.2196C13.5958 16.2919 13.4952 16.3313 13.391 16.3293H12.876C12.8406 16.3293 12.8067 16.3434 12.7817 16.3684C12.7567 16.3934 12.7426 16.4273 12.7426 16.4627V16.5254C12.7426 16.5429 12.746 16.5602 12.7528 16.5764C12.7595 16.5926 12.7693 16.6073 12.7817 16.6197C12.7941 16.6321 12.8088 16.6419 12.8249 16.6486C12.8411 16.6553 12.8585 16.6588 12.876 16.6588H17.3884C17.411 16.6597 17.4335 16.6548 17.4537 16.6447C17.4739 16.6345 17.4912 16.6194 17.5039 16.6007C17.5167 16.5821 17.5245 16.5604 17.5266 16.5379C17.5287 16.5154 17.5251 16.4927 17.516 16.472L17.0729 15.319C17.0634 15.2937 17.0465 15.2719 17.0243 15.2566C17.0021 15.2413 16.9757 15.2331 16.9488 15.2331H15.8073H15.6658C15.6475 15.2338 15.6293 15.2306 15.6123 15.2238C15.5953 15.217 15.58 15.2068 15.5672 15.1937C15.4973 15.143 15.4451 15.0717 15.4179 14.9897C15.3907 14.9078 15.3898 14.8194 15.4154 14.737C15.441 14.6545 15.4918 14.5822 15.5606 14.5301C15.6295 14.478 15.7129 14.4488 15.7992 14.4466L17.2318 14.4408H17.2492C17.2701 14.4408 17.291 14.4408 17.3118 14.4408C17.3839 14.4433 17.454 14.4649 17.5148 14.5035L17.5311 14.5139C17.6133 14.571 17.6705 14.6573 17.6912 14.7552L18.19 16.0567C18.394 16.5994 18.6263 17.131 18.886 17.6494L18.9034 17.668C19.2468 17.5427 19.6096 17.4787 19.9752 17.4789C20.6085 17.4711 21.2299 17.6517 21.7603 17.9978C22.2907 18.3438 22.7063 18.8398 22.9543 19.4226C23.2022 20.0054 23.2714 20.6488 23.1529 21.271C23.0344 21.8931 22.7336 22.466 22.2888 22.9169C21.844 23.3678 21.2752 23.6763 20.6547 23.8031C20.0341 23.93 19.3899 23.8696 18.8038 23.6296C18.2177 23.3895 17.7162 22.9806 17.3629 22.4549C17.0097 21.9292 16.8207 21.3104 16.82 20.677ZM18.4347 18.8442C18.1726 19.072 17.9627 19.3536 17.8194 19.6699C17.676 19.9862 17.6026 20.3297 17.6042 20.677C17.6122 21.1681 17.7724 21.6446 18.0626 22.0408C18.3528 22.437 18.7588 22.7334 19.2246 22.8891C19.6904 23.0449 20.1931 23.0523 20.6632 22.9103C21.1334 22.7683 21.548 22.484 21.8497 22.0965C22.1515 21.709 22.3256 21.2374 22.3481 20.7468C22.3705 20.2562 22.2402 19.7707 21.9752 19.3572C21.7101 18.9438 21.3232 18.6227 20.868 18.4384C20.4128 18.2541 19.9116 18.2155 19.4335 18.328C19.4138 18.3328 19.3955 18.342 19.3798 18.3549C19.3642 18.3678 19.3517 18.384 19.3432 18.4024C19.3347 18.4208 19.3305 18.4409 19.3309 18.4612C19.3312 18.4814 19.3362 18.5013 19.3453 18.5194L20.3464 20.4914V20.5018C20.3697 20.5482 20.3835 20.5987 20.3872 20.6504C20.3908 20.7021 20.3842 20.7541 20.3677 20.8033C20.3512 20.8524 20.3252 20.8978 20.291 20.9369C20.2569 20.9759 20.2154 21.0079 20.1689 21.0308C20.1224 21.0538 20.0718 21.0673 20.0201 21.0706C19.9683 21.0739 19.9164 21.067 19.8674 21.0501C19.8183 21.0333 19.7731 21.007 19.7342 20.9726C19.6954 20.9382 19.6638 20.8965 19.6411 20.8498L18.6435 18.8778C18.6327 18.8562 18.6162 18.838 18.5957 18.8251C18.5753 18.8122 18.5517 18.8052 18.5275 18.8048C18.4958 18.8081 18.4663 18.8225 18.444 18.8454L18.4347 18.8442ZM6.64796 20.677C6.6374 21.2643 6.84534 21.8346 7.23146 22.2773C7.61757 22.72 8.15434 23.0035 8.73765 23.0729C9.32096 23.1423 9.90924 22.9925 10.3884 22.6527C10.8675 22.3129 11.2034 21.8072 11.3309 21.2338C11.3352 21.2142 11.3351 21.1938 11.3305 21.1742C11.326 21.1546 11.3171 21.1363 11.3045 21.1206C11.2919 21.105 11.276 21.0923 11.2579 21.0836C11.2397 21.0748 11.2199 21.0703 11.1998 21.0702H8.37636C8.29693 21.0706 8.21926 21.0469 8.15362 21.0021C8.08799 20.9574 8.0375 20.8938 8.00882 20.8197C7.98015 20.7456 7.97465 20.6646 7.99305 20.5873C8.01145 20.5101 8.05289 20.4402 8.11188 20.387L9.9876 18.676C10.0043 18.6611 10.0169 18.6424 10.0244 18.6213C10.0319 18.6003 10.0341 18.5778 10.0306 18.5557C10.0271 18.5337 10.0182 18.5129 10.0046 18.4952C9.99102 18.4775 9.97321 18.4635 9.9528 18.4544C9.65966 18.3283 9.34392 18.2632 9.0248 18.263C8.70983 18.2641 8.39819 18.3275 8.10787 18.4497C7.81754 18.5718 7.55429 18.7502 7.33331 18.9747C7.11232 19.1991 6.93798 19.4651 6.82035 19.7573C6.70272 20.0495 6.64413 20.3621 6.64796 20.677ZM12.122 17.8025L11.4376 18.4243C11.4122 18.4476 11.3969 18.4798 11.3947 18.5142C11.3925 18.5485 11.4037 18.5824 11.426 18.6087C11.8025 19.054 12.0496 19.5941 12.1406 20.1701C12.1448 20.202 12.1603 20.2313 12.1844 20.2526C12.2085 20.2739 12.2395 20.2858 12.2716 20.2861H13.3388C13.3614 20.2858 13.3834 20.2798 13.4029 20.2686C13.4225 20.2574 13.4388 20.2414 13.4504 20.2221C13.4621 20.2028 13.4686 20.1809 13.4693 20.1584C13.4701 20.1359 13.4651 20.1136 13.4548 20.0935L12.3285 17.8431C12.3192 17.8248 12.3058 17.8089 12.2893 17.7966C12.2729 17.7843 12.2538 17.776 12.2336 17.7722C12.2134 17.7685 12.1926 17.7696 12.1728 17.7752C12.1531 17.7809 12.1349 17.791 12.1197 17.8048L12.122 17.8025ZM10.6616 19.1307L9.64772 20.0529C9.62793 20.0709 9.61403 20.0945 9.60781 20.1206C9.60159 20.1466 9.60335 20.1739 9.61286 20.1989C9.62237 20.2239 9.63919 20.2455 9.66113 20.2609C9.68307 20.2762 9.70911 20.2846 9.73588 20.2849H11.201C11.221 20.2851 11.2408 20.2807 11.259 20.2721C11.2771 20.2635 11.293 20.2509 11.3056 20.2353C11.3182 20.2197 11.3271 20.2015 11.3317 20.1819C11.3363 20.1624 11.3364 20.1421 11.332 20.1225C11.2495 19.7655 11.0868 19.4319 10.8564 19.147C10.8437 19.1312 10.8277 19.1184 10.8094 19.1096C10.7911 19.1007 10.7712 19.0961 10.7509 19.0959C10.7178 19.0959 10.6859 19.1084 10.6616 19.1307ZM13.108 17.632L14.2251 19.8615C14.2343 19.8799 14.2477 19.8959 14.2642 19.9083C14.2807 19.9206 14.2999 19.9289 14.3202 19.9325C14.3404 19.9361 14.3613 19.9349 14.381 19.929C14.4008 19.9232 14.4189 19.9127 14.4339 19.8986L16.8873 17.6691C16.9071 17.6511 16.921 17.6275 16.9272 17.6015C16.9334 17.5755 16.9316 17.5481 16.9221 17.5231C16.9126 17.4981 16.8958 17.4765 16.8739 17.4612C16.8519 17.4458 16.8259 17.4375 16.7991 17.4371H13.224C13.2014 17.4378 13.1794 17.4442 13.1599 17.4557C13.1404 17.4672 13.1242 17.4834 13.1126 17.5028C13.1011 17.5222 13.0946 17.5442 13.0938 17.5668C13.093 17.5894 13.0979 17.6118 13.108 17.632ZM6.20948 13.9502C5.89971 13.9511 5.60208 13.8298 5.3812 13.6126C5.16032 13.3954 5.03404 13.0999 5.02976 12.7902V6.7686C5.03338 6.45695 5.15887 6.1591 5.37936 5.93883C5.59986 5.71855 5.89783 5.59335 6.20948 5.59004H12.2334C12.543 5.59341 12.8387 5.71909 13.056 5.93966C13.2733 6.16023 13.3946 6.4578 13.3934 6.76744V12.7902C13.3934 13.0978 13.2711 13.3929 13.0536 13.6104C12.8361 13.8279 12.541 13.9502 12.2334 13.9502H6.20948ZM7.52028 12.1707H8.68028V10.4818H9.46444C9.95889 10.5161 10.4494 10.3734 10.8483 10.0792C11.013 9.94567 11.1443 9.77562 11.2318 9.58254C11.3194 9.38947 11.3609 9.17866 11.3529 8.9668C11.3581 8.67072 11.2775 8.37947 11.1209 8.12812C10.9624 7.87777 10.7336 7.67967 10.4632 7.55856C10.1561 7.42267 9.82209 7.35841 9.48648 7.37064H7.52028V12.1707ZM8.68028 9.59204V8.25804H9.49228C9.58364 8.25142 9.67535 8.26492 9.76093 8.29759C9.84651 8.33026 9.92389 8.3813 9.9876 8.44712C10.1142 8.5911 10.1795 8.77882 10.1697 8.97028C10.1745 9.05566 10.1613 9.14108 10.1309 9.22102C10.1005 9.30095 10.0537 9.37361 9.9934 9.43428C9.84829 9.5506 9.66345 9.60556 9.47836 9.5874L8.68028 9.59204Z" fill="#006DF6"/>
</svg>
