<svg width="29" height="29" viewBox="0 0 29 29" fill="none" xmlns="http://www.w3.org/2000/svg">
<path d="M3.48 29C2.55705 29 1.67189 28.6334 1.01927 27.9807C0.366642 27.3281 0 26.443 0 25.52L0 3.48C0 2.55705 0.366642 1.67189 1.01927 1.01927C1.67189 0.366642 2.55705 0 3.48 0L25.52 0C26.443 0 27.3281 0.366642 27.9807 1.01927C28.6334 1.67189 29 2.55705 29 3.48V25.52C29 26.443 28.6334 27.3281 27.9807 27.9807C27.3281 28.6334 26.443 29 25.52 29H3.48ZM1.16 3.48V25.52C1.16 26.1353 1.40443 26.7254 1.83951 27.1605C2.2746 27.5956 2.8647 27.84 3.48 27.84H25.52C26.1353 27.84 26.7254 27.5956 27.1605 27.1605C27.5956 26.7254 27.84 26.1353 27.84 25.52V3.48C27.84 2.8647 27.5956 2.2746 27.1605 1.83951C26.7254 1.40443 26.1353 1.16 25.52 1.16H3.48C2.8647 1.16 2.2746 1.40443 1.83951 1.83951C1.40443 2.2746 1.16 2.8647 1.16 3.48ZM10.7242 19.14V10.4064C10.7242 10.3505 10.7464 10.297 10.7859 10.2575C10.8253 10.218 10.8789 10.1958 10.9347 10.1958C10.9906 10.1958 11.0441 10.218 11.0836 10.2575C11.1231 10.297 11.1453 10.3505 11.1453 10.4064V19.14C11.1453 19.1958 11.1231 19.2494 11.0836 19.2889C11.0441 19.3284 10.9906 19.3505 10.9347 19.3505C10.8789 19.3505 10.8253 19.3284 10.7859 19.2889C10.7464 19.2494 10.7242 19.1958 10.7242 19.14ZM8.2882 19.35C8.20658 19.3421 8.13088 19.3039 8.0761 19.2429C8.02131 19.1819 7.99144 19.1025 7.9924 19.0205V16.1658C7.9921 16.1601 7.98965 16.1548 7.98555 16.1509C7.98145 16.147 7.97601 16.1449 7.97036 16.1449H7.859C7.85626 16.1449 7.85354 16.1454 7.85101 16.1465C7.84848 16.1475 7.84617 16.1491 7.84423 16.151C7.8423 16.1529 7.84076 16.1552 7.83971 16.1578C7.83866 16.1603 7.83812 16.163 7.83812 16.1658V19.031C7.83813 19.0754 7.8289 19.1193 7.81103 19.1599C7.79316 19.2005 7.76703 19.237 7.7343 19.267C7.70157 19.297 7.66297 19.3199 7.62093 19.3342C7.57889 19.3484 7.53435 19.3538 7.49012 19.35C7.40829 19.3424 7.33231 19.3043 7.27728 19.2433C7.22226 19.1822 7.19223 19.1027 7.19316 19.0205V16.1658C7.19316 16.1629 7.19259 16.1601 7.19147 16.1575C7.19035 16.1549 7.1887 16.1525 7.18664 16.1506C7.18458 16.1486 7.18214 16.1471 7.17947 16.1461C7.1768 16.1451 7.17396 16.1447 7.17112 16.1449H6.496C6.49269 16.145 6.4894 16.1444 6.4864 16.143C6.4834 16.1416 6.48077 16.1395 6.47873 16.1369C6.47669 16.1343 6.4753 16.1312 6.47467 16.128C6.47404 16.1247 6.4742 16.1214 6.47512 16.1182L7.09572 13.3122C7.10004 13.2685 7.08827 13.2249 7.06264 13.1893C7.03702 13.1538 6.99928 13.1288 6.95654 13.1191C6.9138 13.1094 6.86899 13.1157 6.83053 13.1367C6.79208 13.1577 6.76263 13.1921 6.74772 13.2333L6.30576 15.1728C6.30031 15.2095 6.28738 15.2446 6.26776 15.2761C6.24815 15.3075 6.22227 15.3346 6.19175 15.3556C6.16122 15.3767 6.12669 15.3912 6.09031 15.3983C6.05393 15.4054 6.01648 15.405 5.98028 15.397C5.94408 15.389 5.9099 15.3737 5.87988 15.352C5.84986 15.3302 5.82463 15.3025 5.80576 15.2706C5.78689 15.2387 5.77479 15.2033 5.77021 15.1665C5.76563 15.1297 5.76866 15.0924 5.77912 15.0568L6.33128 12.6312C6.35923 12.4336 6.45759 12.2528 6.60828 12.1219C6.75896 11.991 6.95183 11.919 7.1514 11.919H8.70696C8.90653 11.919 9.0994 11.991 9.25008 12.1219C9.40076 12.2528 9.49913 12.4336 9.52708 12.6312L10.0792 15.0568C10.0878 15.0918 10.0894 15.1282 10.0837 15.1638C10.078 15.1994 10.0653 15.2335 10.0462 15.2641C10.0272 15.2947 10.0022 15.3212 9.97274 15.342C9.9433 15.3628 9.91 15.3775 9.87478 15.3853C9.83957 15.393 9.80317 15.3936 9.76771 15.3871C9.73226 15.3805 9.69847 15.367 9.66834 15.3472C9.63821 15.3274 9.61235 15.3017 9.59227 15.2718C9.57219 15.2419 9.55831 15.2082 9.55144 15.1728L9.11064 13.2356C9.10018 13.1881 9.07127 13.1466 9.03026 13.1204C8.98925 13.0942 8.93951 13.0854 8.89198 13.0958C8.84445 13.1063 8.80302 13.1352 8.7768 13.1762C8.75059 13.2172 8.74174 13.2669 8.7522 13.3145L9.35192 16.124C9.35263 16.1271 9.35262 16.1303 9.35189 16.1334C9.35116 16.1365 9.34974 16.1394 9.34772 16.1419C9.34571 16.1443 9.34316 16.1463 9.34027 16.1476C9.33738 16.149 9.33422 16.1496 9.33104 16.1495H8.65012C8.64467 16.1498 8.63952 16.1521 8.63567 16.1559C8.63181 16.1598 8.62952 16.165 8.62924 16.1704V19.0368C8.62924 19.1212 8.59579 19.2021 8.53622 19.2619C8.47664 19.3217 8.3958 19.3555 8.3114 19.3558L8.2882 19.35ZM13.9003 19.35C13.8463 19.3501 13.7928 19.3396 13.743 19.319C13.6931 19.2984 13.6477 19.2682 13.6096 19.23C13.5714 19.1919 13.5412 19.1465 13.5206 19.0966C13.5 19.0468 13.4895 18.9933 13.4896 18.9393V15.4222H13.2936V18.9254C13.2949 19.0345 13.2535 19.1398 13.1784 19.2189C13.1032 19.298 13.0001 19.3446 12.8911 19.3488H12.8841C12.8301 19.349 12.7766 19.3384 12.7266 19.3179C12.6767 19.2973 12.6313 19.2671 12.593 19.2289C12.5547 19.1908 12.5244 19.1455 12.5037 19.0956C12.483 19.0457 12.4723 18.9922 12.4723 18.9382V13.1683C12.4723 13.1485 12.4644 13.1294 12.4504 13.1154C12.4364 13.1014 12.4173 13.0935 12.3975 13.0935C12.3777 13.0935 12.3586 13.1014 12.3446 13.1154C12.3306 13.1294 12.3227 13.1485 12.3227 13.1683V15.2157C12.3232 15.2851 12.2977 15.3522 12.251 15.4035C12.2044 15.4549 12.1401 15.4868 12.071 15.493C12.0341 15.4953 11.9972 15.4901 11.9625 15.4777C11.9277 15.4653 11.8959 15.4458 11.8689 15.4206C11.842 15.3954 11.8205 15.3649 11.8057 15.3311C11.791 15.2972 11.7834 15.2607 11.7833 15.2238V12.6718C11.8018 12.4649 11.897 12.2723 12.0503 12.1319C12.2035 11.9915 12.4037 11.9135 12.6115 11.9132H14.1671C14.3749 11.9135 14.5751 11.9915 14.7283 12.1319C14.8816 12.2723 14.9768 12.4649 14.9953 12.6718V15.2134C14.9959 15.2829 14.9704 15.3501 14.9237 15.4017C14.8771 15.4532 14.8128 15.4854 14.7436 15.4918C14.7067 15.4943 14.6697 15.4893 14.6349 15.4769C14.6001 15.4645 14.5682 15.4451 14.5412 15.4199C14.5142 15.3946 14.4927 15.3641 14.478 15.3301C14.4634 15.2962 14.4558 15.2596 14.4559 15.2227V13.1683C14.4559 13.1485 14.448 13.1294 14.434 13.1154C14.42 13.1014 14.4009 13.0935 14.3811 13.0935C14.3613 13.0935 14.3422 13.1014 14.3282 13.1154C14.3142 13.1294 14.3063 13.1485 14.3063 13.1683V18.9266C14.3073 19.0356 14.2658 19.1407 14.1907 19.2197C14.1156 19.2987 14.0127 19.3454 13.9038 19.35H13.9003ZM16.704 16.3862C16.6786 15.8466 16.8189 15.3122 17.1061 14.8548C17.3933 14.3974 17.8136 14.0388 18.3106 13.8272C18.3209 13.8227 18.3322 13.8209 18.3433 13.822C18.3545 13.823 18.3653 13.8268 18.3746 13.833C18.3839 13.8392 18.3916 13.8477 18.3968 13.8576C18.402 13.8675 18.4047 13.8786 18.4046 13.8898V14.7192C18.4044 14.7306 18.4015 14.7417 18.3961 14.7516C18.3906 14.7615 18.3828 14.7699 18.3732 14.7761C18.1111 14.953 17.8982 15.1934 17.7543 15.475C17.6105 15.7566 17.5405 16.0701 17.5508 16.3862C17.5514 16.9132 17.7611 17.4184 18.1339 17.791C18.5067 18.1635 19.012 18.3729 19.539 18.3732C20.0548 18.3789 20.552 18.1814 20.9234 17.8235C21.2948 17.4656 21.5104 16.976 21.5238 16.4604C21.5244 16.4431 21.5318 16.4267 21.5444 16.4147C21.557 16.4028 21.5737 16.3963 21.5911 16.3966H21.7964C21.8086 16.3968 21.8205 16.4002 21.8309 16.4065C21.8413 16.4129 21.8498 16.4218 21.8556 16.4326L22.2407 17.1692C22.2474 17.1855 22.2474 17.2038 22.2407 17.2202C22.0404 17.8679 21.6146 18.4224 21.0404 18.783C20.4663 19.1436 19.7819 19.2864 19.1115 19.1855C18.441 19.0846 17.829 18.7466 17.3864 18.233C16.9438 17.7194 16.7001 17.0641 16.6994 16.3862H16.704ZM23.2139 18.1691C23.114 18.137 23.0307 18.0671 22.9819 17.9742L22.0261 16.1507C22.0203 16.14 22.0118 16.131 22.0014 16.1247C21.991 16.1183 21.9791 16.1149 21.9669 16.1147H19.2479C19.1017 16.1147 18.9613 16.0574 18.857 15.955C18.7526 15.8526 18.6927 15.7134 18.6899 15.5672V12.7252C18.6902 12.5773 18.7484 12.4353 18.852 12.3297C18.9556 12.2241 19.0965 12.1633 19.2444 12.1603C19.3982 12.1603 19.5458 12.2214 19.6545 12.3302C19.7633 12.4389 19.8244 12.5865 19.8244 12.7403V13.5082C19.8244 13.5171 19.8262 13.526 19.8296 13.5342C19.8331 13.5425 19.8381 13.5499 19.8445 13.5562C19.8509 13.5625 19.8584 13.5674 19.8667 13.5707C19.875 13.574 19.8839 13.5756 19.8928 13.5755H21.9553C22.0662 13.5755 22.1727 13.619 22.2519 13.6966C22.331 13.7743 22.3766 13.8799 22.3787 13.9908C22.3787 14.0476 22.3675 14.1039 22.3457 14.1564C22.3238 14.2089 22.2918 14.2566 22.2515 14.2967C22.2112 14.3368 22.1633 14.3686 22.1107 14.3901C22.0581 14.4116 22.0017 14.4226 21.9449 14.4223H19.887C19.878 14.4221 19.869 14.4238 19.8607 14.4272C19.8523 14.4306 19.8447 14.4356 19.8383 14.442C19.8319 14.4484 19.8269 14.456 19.8235 14.4643C19.8201 14.4727 19.8184 14.4817 19.8186 14.4907V14.9211C19.8186 14.93 19.8204 14.9389 19.8238 14.9471C19.8273 14.9553 19.8323 14.9628 19.8387 14.9691C19.8451 14.9753 19.8526 14.9803 19.8609 14.9836C19.8692 14.9869 19.8781 14.9885 19.887 14.9884H22.047C22.1451 14.9884 22.2413 15.0152 22.3253 15.0659C22.4093 15.1166 22.4779 15.1893 22.5237 15.276L23.722 17.5601C23.774 17.6595 23.7844 17.7755 23.751 17.8826C23.7347 17.9359 23.708 17.9854 23.6723 18.0282C23.6367 18.071 23.5928 18.1063 23.5434 18.132L23.5202 18.1447C23.4634 18.1749 23.4001 18.1908 23.3357 18.1911C23.2959 18.1898 23.2564 18.1828 23.2186 18.1702L23.2139 18.1691ZM18.4324 11.0374C18.4324 10.8711 18.4817 10.7085 18.5741 10.5702C18.6665 10.4319 18.7979 10.3241 18.9516 10.2604C19.1052 10.1968 19.2743 10.1801 19.4375 10.2126C19.6006 10.245 19.7505 10.3251 19.8681 10.4427C19.9857 10.5603 20.0658 10.7102 20.0982 10.8733C20.1307 11.0365 20.114 11.2056 20.0504 11.3592C19.9867 11.5129 19.8789 11.6443 19.7406 11.7367C19.6023 11.8291 19.4397 11.8784 19.2734 11.8784C19.0504 11.8781 18.8367 11.7894 18.6791 11.6317C18.5214 11.4741 18.4327 11.2604 18.4324 11.0374ZM12.6776 10.904C12.6776 10.7629 12.7195 10.625 12.7979 10.5077C12.8763 10.3903 12.9877 10.2989 13.118 10.2449C13.2484 10.1909 13.3918 10.1768 13.5302 10.2043C13.6686 10.2318 13.7957 10.2998 13.8955 10.3995C13.9953 10.4993 14.0632 10.6264 14.0907 10.7648C14.1183 10.9032 14.1041 11.0466 14.0501 11.177C13.9961 11.3074 13.9047 11.4188 13.7874 11.4972C13.6701 11.5756 13.5321 11.6174 13.391 11.6174C13.2018 11.6174 13.0204 11.5422 12.8866 11.4084C12.7528 11.2747 12.6776 11.0932 12.6776 10.904ZM7.21636 10.904C7.21636 10.7629 7.2582 10.625 7.33659 10.5077C7.41498 10.3903 7.5264 10.2989 7.65675 10.2449C7.78711 10.1909 7.93055 10.1768 8.06894 10.2043C8.20732 10.2318 8.33444 10.2998 8.43421 10.3995C8.53398 10.4993 8.60192 10.6264 8.62945 10.7648C8.65698 10.9032 8.64285 11.0466 8.58885 11.177C8.53486 11.3074 8.44342 11.4188 8.3261 11.4972C8.20879 11.5756 8.07086 11.6174 7.92976 11.6174C7.74055 11.6174 7.5591 11.5422 7.42531 11.4084C7.29152 11.2747 7.21636 11.0932 7.21636 10.904Z" fill="#006DF6"/>
</svg>
