<svg width="29" height="29" viewBox="0 0 29 29" fill="none" xmlns="http://www.w3.org/2000/svg">
<path d="M3.48 29C2.55705 29 1.67189 28.6334 1.01927 27.9807C0.366642 27.3281 0 26.443 0 25.52L0 3.48C0 2.55705 0.366642 1.67189 1.01927 1.01927C1.67189 0.366642 2.55705 0 3.48 0L25.52 0C26.443 0 27.3281 0.366642 27.9807 1.01927C28.6334 1.67189 29 2.55705 29 3.48V25.52C29 26.443 28.6334 27.3281 27.9807 27.9807C27.3281 28.6334 26.443 29 25.52 29H3.48ZM1.16 3.48V25.52C1.16 26.1353 1.40443 26.7254 1.83951 27.1605C2.2746 27.5956 2.8647 27.84 3.48 27.84H25.52C26.1353 27.84 26.7254 27.5956 27.1605 27.1605C27.5956 26.7254 27.84 26.1353 27.84 25.52V3.48C27.84 2.8647 27.5956 2.2746 27.1605 1.83951C26.7254 1.40443 26.1353 1.16 25.52 1.16H3.48C2.8647 1.16 2.2746 1.40443 1.83951 1.83951C1.40443 2.2746 1.16 2.8647 1.16 3.48ZM10.056 23.7162C9.76202 23.7308 9.47418 23.6284 9.25533 23.4315C9.03649 23.2346 8.90441 22.9592 8.88792 22.6652V10.3089C8.90381 10.0147 9.03568 9.73874 9.25462 9.54154C9.47357 9.34433 9.76175 9.24194 10.056 9.2568H11.6V6.5424C11.6066 6.39746 11.6688 6.26063 11.7737 6.16039C11.8786 6.06015 12.0181 6.00421 12.1632 6.00421C12.3083 6.00421 12.4478 6.06015 12.5527 6.16039C12.6576 6.26063 12.7198 6.39746 12.7264 6.5424V9.2568H17.2376V6.5424C17.2468 6.39913 17.3102 6.26474 17.4149 6.16653C17.5196 6.06832 17.6578 6.01366 17.8014 6.01366C17.9449 6.01366 18.0831 6.06832 18.1878 6.16653C18.2925 6.26474 18.3559 6.39913 18.3651 6.5424V9.2568H19.8592C20.153 9.24226 20.4406 9.34467 20.659 9.54162C20.8775 9.73858 21.0091 10.014 21.025 10.3078V22.6652C21.0088 22.9588 20.8771 23.2341 20.6587 23.431C20.4403 23.6279 20.1529 23.7304 19.8592 23.7162H10.056ZM15.7192 22.6386H19.72C19.7494 22.6386 19.7777 22.6275 19.7993 22.6075C19.8208 22.5875 19.8339 22.56 19.836 22.5307V10.6569C19.8339 10.5691 19.797 10.4858 19.7335 10.4251C19.67 10.3644 19.5851 10.3314 19.4973 10.3333H15.7192V22.6386ZM10.0792 10.44V22.5318C10.0813 22.5612 10.0944 22.5886 10.116 22.6087C10.1375 22.6287 10.1658 22.6398 10.1952 22.6397H14.1914V10.3333H10.1929C10.1641 10.3338 10.1365 10.345 10.1155 10.3647C10.0945 10.3844 10.0815 10.4113 10.0792 10.44ZM11.89 18.3906V15.1334L11.1464 15.8398C11.0988 15.8831 11.0368 15.9071 10.9724 15.9071C10.9081 15.9071 10.8461 15.8831 10.7984 15.8398C10.776 15.8182 10.7581 15.7922 10.7459 15.7635C10.7337 15.7348 10.7274 15.7039 10.7274 15.6728C10.7274 15.6416 10.7337 15.6107 10.7459 15.582C10.7581 15.5533 10.776 15.5274 10.7984 15.5057L11.9677 14.3944C11.9714 14.392 11.9749 14.3893 11.9782 14.3863L11.9874 14.3794C11.9992 14.3698 12.0121 14.3617 12.0257 14.355H12.0362H12.0478C12.0512 14.3544 12.0547 14.3544 12.0582 14.355H12.0698H12.093H12.1092H12.1684H12.1858H12.2078H12.2206H12.2322H12.2426H12.2531C12.2666 14.3619 12.2794 14.37 12.2914 14.3794L12.3006 14.3863L12.3169 14.4014L13.4873 15.5127C13.5098 15.5343 13.5276 15.5603 13.5398 15.589C13.552 15.6177 13.5583 15.6485 13.5583 15.6797C13.5583 15.7109 13.552 15.7418 13.5398 15.7705C13.5276 15.7992 13.5098 15.8251 13.4873 15.8468C13.4396 15.8898 13.3776 15.9136 13.3133 15.9136C13.249 15.9136 13.1871 15.8898 13.1393 15.8468L12.3842 15.1299V18.3895C12.3799 18.4525 12.3518 18.5116 12.3056 18.5547C12.2594 18.5979 12.1985 18.6219 12.1353 18.6219C12.0721 18.6219 12.0113 18.5979 11.9651 18.5547C11.9189 18.5116 11.8908 18.4525 11.8865 18.3895L11.89 18.3906ZM17.7642 18.6226H17.7584H17.741H17.7178H17.7051H17.6935H17.683H17.6714L17.6343 18.5971C17.6279 18.5937 17.6231 18.5879 17.621 18.5809C17.6188 18.574 17.6194 18.5665 17.6227 18.56L17.6065 18.5461L16.4384 17.4348C16.4159 17.4132 16.398 17.3872 16.3858 17.3585C16.3736 17.3298 16.3674 17.2989 16.3674 17.2678C16.3674 17.2366 16.3736 17.2057 16.3858 17.177C16.398 17.1483 16.4159 17.1224 16.4384 17.1007C16.4857 17.0569 16.5479 17.0326 16.6124 17.0326C16.6769 17.0326 16.739 17.0569 16.7864 17.1007L17.5415 17.8164V14.5568C17.5458 14.4938 17.5739 14.4347 17.6201 14.3916C17.6663 14.3484 17.7271 14.3244 17.7903 14.3244C17.8535 14.3244 17.9144 14.3484 17.9606 14.3916C18.0068 14.4347 18.0349 14.4938 18.0392 14.5568V17.8153L18.7827 17.1077C18.8305 17.0646 18.8924 17.0408 18.9567 17.0408C19.021 17.0408 19.083 17.0646 19.1307 17.1077C19.1532 17.1293 19.171 17.1553 19.1832 17.184C19.1954 17.2127 19.2017 17.2435 19.2017 17.2747C19.2017 17.3059 19.1954 17.3368 19.1832 17.3655C19.171 17.3942 19.1532 17.4201 19.1307 17.4418L17.9603 18.553L17.9533 18.56L17.9452 18.567C17.9331 18.5764 17.9203 18.5849 17.9069 18.5925H17.8965H17.8849H17.8733H17.8617H17.8385H17.8211H17.8153H17.7909L17.7642 18.6226ZM15.428 7.89844C15.4222 7.78538 15.4504 7.67317 15.5091 7.57631C15.5677 7.47946 15.654 7.40241 15.7569 7.35512C15.8597 7.30782 15.9744 7.29246 16.0861 7.31101C16.1978 7.32956 16.3013 7.38117 16.3834 7.45918C16.4654 7.53719 16.5222 7.638 16.5464 7.74861C16.5705 7.85921 16.561 7.97452 16.5189 8.07964C16.4769 8.18476 16.4043 8.27486 16.3105 8.3383C16.2168 8.40174 16.1061 8.4356 15.9929 8.43552C15.8469 8.43895 15.7054 8.38435 15.5995 8.28368C15.4936 8.18302 15.4319 8.04449 15.428 7.89844ZM13.4757 7.89844C13.4702 7.78564 13.4985 7.67376 13.5572 7.57724C13.6158 7.48073 13.702 7.40401 13.8047 7.35698C13.9074 7.30996 14.0218 7.29479 14.1332 7.31343C14.2446 7.33208 14.3478 7.38368 14.4296 7.46158C14.5114 7.53948 14.5679 7.6401 14.5919 7.75045C14.616 7.86081 14.6064 7.97583 14.5644 8.08067C14.5224 8.1855 14.4499 8.27535 14.3564 8.3386C14.2628 8.40186 14.1524 8.43561 14.0395 8.43552C13.967 8.43768 13.8948 8.42548 13.827 8.39961C13.7592 8.37374 13.6973 8.33472 13.6447 8.2848C13.592 8.23488 13.5498 8.17504 13.5204 8.10873C13.491 8.04242 13.475 7.97095 13.4734 7.89844H13.4757Z" fill="#006DF6"/>
</svg>
