<svg width="29" height="29" viewBox="0 0 29 29" fill="none" xmlns="http://www.w3.org/2000/svg">
<path d="M3.48 29C2.55705 29 1.67189 28.6334 1.01927 27.9807C0.366642 27.3281 0 26.443 0 25.52L0 3.48C0 2.55705 0.366642 1.6719 1.01927 1.01927C1.67189 0.366642 2.55705 0 3.48 0L25.52 0C26.443 0 27.3281 0.366642 27.9807 1.01927C28.6334 1.6719 29 2.55705 29 3.48V25.52C29 26.443 28.6334 27.3281 27.9807 27.9807C27.3281 28.6334 26.443 29 25.52 29H3.48ZM1.16 3.48V25.52C1.16 26.1353 1.40443 26.7254 1.83951 27.1605C2.2746 27.5956 2.8647 27.84 3.48 27.84H25.52C26.1353 27.84 26.7254 27.5956 27.1605 27.1605C27.5956 26.7254 27.84 26.1353 27.84 25.52V3.48C27.84 2.8647 27.5956 2.2746 27.1605 1.83951C26.7254 1.40443 26.1353 1.16 25.52 1.16H3.48C2.8647 1.16 2.2746 1.40443 1.83951 1.83951C1.40443 2.2746 1.16 2.8647 1.16 3.48ZM10.4284 23.3392H7.97964C6.47164 23.3392 5.63528 21.6874 5.6318 20.3824C5.62832 19.0774 6.467 17.5311 7.85088 17.5311H9.23476C9.56188 17.5311 9.68484 17.5578 9.773 17.487C10.1024 17.226 10.2544 17.0833 10.5038 16.8745L11.9294 15.5985C11.9969 15.5394 12.0507 15.4664 12.0871 15.3845C12.1236 15.3026 12.1418 15.2137 12.1406 15.1241V14.9199V10.636C12.1369 10.5684 12.1369 10.5007 12.1406 10.433V10.4017C12.1406 10.3692 12.1406 10.3379 12.1406 10.2996C12.1429 9.98591 12.2678 9.68552 12.4885 9.46253C12.7092 9.23955 13.0083 9.11162 13.322 9.10602C13.6357 9.10042 13.9391 9.2176 14.1677 9.43256C14.3962 9.64753 14.5317 9.94327 14.5452 10.2567C14.5452 10.2857 14.5452 10.3136 14.5452 10.3437C14.5394 10.4319 14.5336 10.5212 14.5336 10.6105C14.5342 10.6194 14.5342 10.6283 14.5336 10.6372L14.5464 12.9676C14.5475 12.9931 14.5557 13.0177 14.5701 13.0387C14.5845 13.0597 14.6045 13.0763 14.6278 13.0864C14.6512 13.0966 14.6769 13.1 14.7021 13.0962C14.7273 13.0924 14.7509 13.0816 14.7703 13.0651L16.6715 11.484C16.8884 11.303 17.0949 11.1128 17.3002 10.9191C17.7334 10.5183 18.2983 10.2901 18.8883 10.2776H21.692C22.3365 10.4065 22.9108 10.7688 23.3046 11.2949C23.6985 11.8211 23.8843 12.4742 23.8264 13.1289C23.8842 13.7809 23.7092 14.4323 23.3325 14.9676C22.9559 15.5029 22.4018 15.8875 21.7686 16.0532C20.9809 16.0532 19.9938 16.0532 19.9938 16.0532C19.9205 16.0427 19.8458 16.0483 19.7749 16.0695C19.704 16.0908 19.6386 16.1272 19.5831 16.1762C19.459 16.2922 19.3372 16.4082 19.2084 16.5138L12.8284 21.9356C12.5698 22.156 12.3215 22.3868 12.0756 22.62C11.6401 23.0597 11.0527 23.3158 10.4342 23.3357L10.4284 23.3392ZM10.3692 21.8393C10.5475 21.8507 10.7263 21.8265 10.8952 21.7681C11.0641 21.7098 11.2197 21.6185 11.3529 21.4994C11.5687 21.2976 11.7833 21.0958 12.0083 20.902L18.7514 15.1287C18.8944 14.9235 19.0912 14.7617 19.3202 14.6612C19.5493 14.5607 19.8016 14.5254 20.0494 14.5592H21.5679C22.3149 14.5592 22.6119 13.6138 22.6119 13.1126C22.6119 12.6115 22.1966 11.7531 21.5783 11.7496H19.0588C18.852 11.7171 18.6403 11.739 18.4444 11.813C18.2486 11.887 18.0753 12.0107 17.9417 12.1719L10.5734 18.5345C10.4517 18.7009 10.2903 18.8344 10.1039 18.9227C9.91758 19.011 9.71212 19.0514 9.5062 19.0402H7.86712C7.33816 19.0402 6.82312 19.5147 6.82312 20.3615C6.78329 20.7098 6.8818 21.0598 7.09745 21.3362C7.31309 21.6126 7.62864 21.7932 7.97616 21.8393H10.3692ZM19.8604 23.3125H19.8546H19.8325L19.8058 23.3067H19.7908H19.778H19.7641L19.7513 23.3009C19.7349 23.2929 19.7193 23.2832 19.7049 23.2719L19.6945 23.2638L19.6748 23.2476L18.2828 21.9136C18.2553 21.8878 18.2334 21.8568 18.2184 21.8222C18.2035 21.7877 18.1957 21.7505 18.1957 21.7129C18.1957 21.6753 18.2035 21.638 18.2184 21.6035C18.2334 21.569 18.2553 21.5379 18.2828 21.5122C18.3399 21.4589 18.4151 21.4292 18.4933 21.4292C18.5715 21.4292 18.6467 21.4589 18.7038 21.5122L19.6063 22.3741V18.4312C19.6063 18.3525 19.6376 18.2769 19.6933 18.2213C19.749 18.1656 19.8245 18.1343 19.9033 18.1343C19.982 18.1343 20.0576 18.1656 20.1133 18.2213C20.169 18.2769 20.2002 18.3525 20.2002 18.4312V22.3451L21.09 21.4948C21.1471 21.4415 21.2223 21.4118 21.3005 21.4118C21.3787 21.4118 21.4539 21.4415 21.511 21.4948C21.5385 21.5205 21.5604 21.5516 21.5754 21.5861C21.5903 21.6206 21.5981 21.6579 21.5981 21.6955C21.5981 21.7331 21.5903 21.7703 21.5754 21.8048C21.5604 21.8394 21.5385 21.8704 21.511 21.8962L20.119 23.2302L20.1063 23.2418L20.0958 23.2499C20.0814 23.2611 20.0659 23.2709 20.0494 23.2789L20.0367 23.2847H20.0228H20.0088H19.9949L19.9682 23.2905H19.9462H19.9172H19.8882L19.8604 23.3125ZM12.2044 6.96812C12.193 6.72415 12.255 6.48238 12.3823 6.27395C12.5096 6.06553 12.6964 5.90001 12.9186 5.79873C13.1409 5.69745 13.3884 5.66504 13.6292 5.7057C13.87 5.74635 14.0931 5.8582 14.2698 6.02682C14.4465 6.19544 14.5686 6.41311 14.6205 6.65178C14.6723 6.89045 14.6515 7.13917 14.5607 7.36589C14.4698 7.59261 14.3132 7.78693 14.111 7.92382C13.9087 8.06071 13.6701 8.13389 13.4258 8.13392C13.269 8.13762 13.1129 8.11035 12.9666 8.05369C12.8203 7.99702 12.6866 7.91207 12.5732 7.80368C12.4597 7.6953 12.3687 7.56561 12.3055 7.42204C12.2422 7.27846 12.2078 7.12382 12.2044 6.96696V6.96812Z" fill="#006DF6"/>
</svg>
