<svg width="29" height="29" viewBox="0 0 29 29" fill="none" xmlns="http://www.w3.org/2000/svg">
<mask id="path-1-inside-1_688_1502" fill="white">
<path d="M3.48 29C2.55705 29 1.67189 28.6334 1.01927 27.9807C0.366642 27.3281 0 26.443 0 25.52V3.48C0 2.55705 0.366642 1.6719 1.01927 1.01927C1.67189 0.366642 2.55705 0 3.48 0H25.52C26.443 0 27.3281 0.366642 27.9807 1.01927C28.6334 1.6719 29 2.55705 29 3.48V25.52C29 26.443 28.6334 27.3281 27.9807 27.9807C27.3281 28.6334 26.443 29 25.52 29H3.48ZM1.16 3.48V25.52C1.16 26.1353 1.40443 26.7254 1.83951 27.1605C2.2746 27.5956 2.8647 27.84 3.48 27.84H25.52C26.1353 27.84 26.7254 27.5956 27.1605 27.1605C27.5956 26.7254 27.84 26.1353 27.84 25.52V3.48C27.84 2.8647 27.5956 2.2746 27.1605 1.83951C26.7254 1.40443 26.1353 1.16 25.52 1.16H3.48C2.8647 1.16 2.2746 1.40443 1.83951 1.83951C1.40443 2.2746 1.16 2.8647 1.16 3.48ZM7.02844 18.1668C6.97317 17.09 7.24496 16.0217 7.80809 15.1023C8.37122 14.1828 9.19935 13.4553 10.1836 13.0152C10.2041 13.0069 10.2263 13.0039 10.2482 13.0063C10.2702 13.0087 10.2911 13.0166 10.3093 13.0291C10.3275 13.0416 10.3422 13.0585 10.3523 13.0781C10.3623 13.0978 10.3674 13.1196 10.3669 13.1416V14.812C10.3676 14.8345 10.3628 14.8569 10.3529 14.8771C10.343 14.8973 10.3283 14.9148 10.3101 14.928C9.79171 15.2905 9.37236 15.777 9.0903 16.3431C8.80825 16.9092 8.67247 17.537 8.69536 18.1691C8.68389 19.2164 9.08804 20.2256 9.81926 20.9755C10.5505 21.7254 11.5491 22.1549 12.5964 22.1699C13.6218 22.1694 14.6056 21.7648 15.3347 21.044C16.0638 20.3231 16.4795 19.344 16.4917 18.3187C16.4929 18.2842 16.5073 18.2515 16.5319 18.2274C16.5565 18.2032 16.5895 18.1894 16.624 18.1888H17.0265C17.0505 18.1894 17.0739 18.1963 17.0943 18.209C17.1147 18.2216 17.1313 18.2395 17.1425 18.2607L17.8976 19.7444C17.9138 19.7755 17.9175 19.8115 17.9081 19.8453C17.5737 20.9996 16.8757 22.0152 15.9179 22.741C14.9601 23.4669 13.7935 23.8642 12.5918 23.874C11.0975 23.8541 9.67218 23.2418 8.62901 22.1717C7.58585 21.1016 7.01017 19.6611 7.02844 18.1668ZM19.8128 21.7558C19.713 21.7244 19.6205 21.6734 19.5408 21.6056C19.4611 21.5379 19.3958 21.4548 19.3488 21.3614L17.4696 17.6912C17.4591 17.6693 17.4427 17.6508 17.4221 17.6379C17.4016 17.625 17.3779 17.6181 17.3536 17.6181H12.0164C11.7257 17.6153 11.4477 17.4981 11.2427 17.2919C11.0377 17.0856 10.9223 16.8069 10.9214 16.5161V10.7961C10.9179 10.5019 11.0299 10.2181 11.2333 10.0056C11.4368 9.79302 11.7154 9.66871 12.0095 9.65932C12.1601 9.66052 12.309 9.69156 12.4476 9.75064C12.5862 9.80972 12.7116 9.89568 12.8168 10.0035C12.922 10.1114 13.0047 10.239 13.0603 10.379C13.1158 10.5191 13.1431 10.6687 13.1405 10.8193V12.3668C13.1402 12.3843 13.1434 12.4018 13.1499 12.4181C13.1564 12.4344 13.1661 12.4492 13.1784 12.4618C13.1907 12.4743 13.2054 12.4842 13.2216 12.491C13.2378 12.4978 13.2552 12.5013 13.2727 12.5013H17.3211C17.5417 12.5044 17.7522 12.5938 17.9075 12.7504C18.0628 12.907 18.1505 13.1183 18.1517 13.3388C18.1534 13.4519 18.1326 13.5641 18.0906 13.6691C18.0486 13.7741 17.9862 13.8697 17.9071 13.9504C17.8279 14.0311 17.7335 14.0953 17.6293 14.1392C17.5251 14.1832 17.4133 14.2061 17.3002 14.2065H13.2727C13.255 14.2068 13.2376 14.2106 13.2214 14.2176C13.2052 14.2247 13.1905 14.2349 13.1782 14.2476C13.166 14.2603 13.1563 14.2753 13.1498 14.2917C13.1433 14.3082 13.1402 14.3257 13.1405 14.3434V15.2088C13.1402 15.2264 13.1433 15.244 13.1498 15.2604C13.1563 15.2769 13.166 15.2919 13.1782 15.3046C13.1905 15.3173 13.2052 15.3275 13.2214 15.3345C13.2376 15.3416 13.255 15.3453 13.2727 15.3456H17.516C17.7106 15.3463 17.9011 15.4009 18.0666 15.5033C18.232 15.6056 18.3659 15.7518 18.4533 15.9256L20.8081 20.525C20.9095 20.7268 20.9294 20.9598 20.8638 21.1758C20.8324 21.282 20.7805 21.3809 20.7108 21.4669C20.6411 21.5529 20.5551 21.6243 20.4578 21.6769L20.4102 21.7024C20.2989 21.7634 20.174 21.7953 20.0471 21.7952C19.9675 21.7941 19.8884 21.7808 19.8128 21.7558ZM10.4133 7.39848C10.4211 7.07324 10.5246 6.75752 10.711 6.49088C10.8974 6.22423 11.1584 6.01852 11.4611 5.8995C11.7639 5.78049 12.0951 5.75346 12.4132 5.82182C12.7312 5.89017 13.0221 6.05086 13.2492 6.28376C13.4764 6.51666 13.6297 6.81141 13.6901 7.13109C13.7505 7.45077 13.7152 7.78116 13.5887 8.08087C13.4621 8.38059 13.25 8.6363 12.9788 8.81597C12.7075 8.99564 12.3893 9.09128 12.064 9.09092C11.8445 9.08819 11.6277 9.04226 11.4259 8.95572C11.2241 8.86919 11.0414 8.74377 10.8881 8.58661C10.7348 8.42944 10.614 8.24363 10.5325 8.03977C10.4511 7.83591 10.4106 7.618 10.4133 7.39848Z"/>
<path d="M6.95 26.9024C6.77019 26.2642 7.14432 25.6103 7.78565 25.4418L24.6069 21.0239C25.2482 20.8555 25.9139 21.2363 26.0937 21.8745C26.2735 22.5128 25.8993 23.1667 25.258 23.3351L8.43681 27.7531C7.79548 27.9215 7.12982 27.5407 6.95 26.9024Z"/>
</mask>
<path d="M3.48 29C2.55705 29 1.67189 28.6334 1.01927 27.9807C0.366642 27.3281 0 26.443 0 25.52V3.48C0 2.55705 0.366642 1.6719 1.01927 1.01927C1.67189 0.366642 2.55705 0 3.48 0H25.52C26.443 0 27.3281 0.366642 27.9807 1.01927C28.6334 1.6719 29 2.55705 29 3.48V25.52C29 26.443 28.6334 27.3281 27.9807 27.9807C27.3281 28.6334 26.443 29 25.52 29H3.48ZM1.16 3.48V25.52C1.16 26.1353 1.40443 26.7254 1.83951 27.1605C2.2746 27.5956 2.8647 27.84 3.48 27.84H25.52C26.1353 27.84 26.7254 27.5956 27.1605 27.1605C27.5956 26.7254 27.84 26.1353 27.84 25.52V3.48C27.84 2.8647 27.5956 2.2746 27.1605 1.83951C26.7254 1.40443 26.1353 1.16 25.52 1.16H3.48C2.8647 1.16 2.2746 1.40443 1.83951 1.83951C1.40443 2.2746 1.16 2.8647 1.16 3.48ZM7.02844 18.1668C6.97317 17.09 7.24496 16.0217 7.80809 15.1023C8.37122 14.1828 9.19935 13.4553 10.1836 13.0152C10.2041 13.0069 10.2263 13.0039 10.2482 13.0063C10.2702 13.0087 10.2911 13.0166 10.3093 13.0291C10.3275 13.0416 10.3422 13.0585 10.3523 13.0781C10.3623 13.0978 10.3674 13.1196 10.3669 13.1416V14.812C10.3676 14.8345 10.3628 14.8569 10.3529 14.8771C10.343 14.8973 10.3283 14.9148 10.3101 14.928C9.79171 15.2905 9.37236 15.777 9.0903 16.3431C8.80825 16.9092 8.67247 17.537 8.69536 18.1691C8.68389 19.2164 9.08804 20.2256 9.81926 20.9755C10.5505 21.7254 11.5491 22.1549 12.5964 22.1699C13.6218 22.1694 14.6056 21.7648 15.3347 21.044C16.0638 20.3231 16.4795 19.344 16.4917 18.3187C16.4929 18.2842 16.5073 18.2515 16.5319 18.2274C16.5565 18.2032 16.5895 18.1894 16.624 18.1888H17.0265C17.0505 18.1894 17.0739 18.1963 17.0943 18.209C17.1147 18.2216 17.1313 18.2395 17.1425 18.2607L17.8976 19.7444C17.9138 19.7755 17.9175 19.8115 17.9081 19.8453C17.5737 20.9996 16.8757 22.0152 15.9179 22.741C14.9601 23.4669 13.7935 23.8642 12.5918 23.874C11.0975 23.8541 9.67218 23.2418 8.62901 22.1717C7.58585 21.1016 7.01017 19.6611 7.02844 18.1668ZM19.8128 21.7558C19.713 21.7244 19.6205 21.6734 19.5408 21.6056C19.4611 21.5379 19.3958 21.4548 19.3488 21.3614L17.4696 17.6912C17.4591 17.6693 17.4427 17.6508 17.4221 17.6379C17.4016 17.625 17.3779 17.6181 17.3536 17.6181H12.0164C11.7257 17.6153 11.4477 17.4981 11.2427 17.2919C11.0377 17.0856 10.9223 16.8069 10.9214 16.5161V10.7961C10.9179 10.5019 11.0299 10.2181 11.2333 10.0056C11.4368 9.79302 11.7154 9.66871 12.0095 9.65932C12.1601 9.66052 12.309 9.69156 12.4476 9.75064C12.5862 9.80972 12.7116 9.89568 12.8168 10.0035C12.922 10.1114 13.0047 10.239 13.0603 10.379C13.1158 10.5191 13.1431 10.6687 13.1405 10.8193V12.3668C13.1402 12.3843 13.1434 12.4018 13.1499 12.4181C13.1564 12.4344 13.1661 12.4492 13.1784 12.4618C13.1907 12.4743 13.2054 12.4842 13.2216 12.491C13.2378 12.4978 13.2552 12.5013 13.2727 12.5013H17.3211C17.5417 12.5044 17.7522 12.5938 17.9075 12.7504C18.0628 12.907 18.1505 13.1183 18.1517 13.3388C18.1534 13.4519 18.1326 13.5641 18.0906 13.6691C18.0486 13.7741 17.9862 13.8697 17.9071 13.9504C17.8279 14.0311 17.7335 14.0953 17.6293 14.1392C17.5251 14.1832 17.4133 14.2061 17.3002 14.2065H13.2727C13.255 14.2068 13.2376 14.2106 13.2214 14.2176C13.2052 14.2247 13.1905 14.2349 13.1782 14.2476C13.166 14.2603 13.1563 14.2753 13.1498 14.2917C13.1433 14.3082 13.1402 14.3257 13.1405 14.3434V15.2088C13.1402 15.2264 13.1433 15.244 13.1498 15.2604C13.1563 15.2769 13.166 15.2919 13.1782 15.3046C13.1905 15.3173 13.2052 15.3275 13.2214 15.3345C13.2376 15.3416 13.255 15.3453 13.2727 15.3456H17.516C17.7106 15.3463 17.9011 15.4009 18.0666 15.5033C18.232 15.6056 18.3659 15.7518 18.4533 15.9256L20.8081 20.525C20.9095 20.7268 20.9294 20.9598 20.8638 21.1758C20.8324 21.282 20.7805 21.3809 20.7108 21.4669C20.6411 21.5529 20.5551 21.6243 20.4578 21.6769L20.4102 21.7024C20.2989 21.7634 20.174 21.7953 20.0471 21.7952C19.9675 21.7941 19.8884 21.7808 19.8128 21.7558ZM10.4133 7.39848C10.4211 7.07324 10.5246 6.75752 10.711 6.49088C10.8974 6.22423 11.1584 6.01852 11.4611 5.8995C11.7639 5.78049 12.0951 5.75346 12.4132 5.82182C12.7312 5.89017 13.0221 6.05086 13.2492 6.28376C13.4764 6.51666 13.6297 6.81141 13.6901 7.13109C13.7505 7.45077 13.7152 7.78116 13.5887 8.08087C13.4621 8.38059 13.25 8.6363 12.9788 8.81597C12.7075 8.99564 12.3893 9.09128 12.064 9.09092C11.8445 9.08819 11.6277 9.04226 11.4259 8.95572C11.2241 8.86919 11.0414 8.74377 10.8881 8.58661C10.7348 8.42944 10.614 8.24363 10.5325 8.03977C10.4511 7.83591 10.4106 7.618 10.4133 7.39848Z" fill="#006DF6"/>
<path d="M6.95 26.9024C6.77019 26.2642 7.14432 25.6103 7.78565 25.4418L24.6069 21.0239C25.2482 20.8555 25.9139 21.2363 26.0937 21.8745C26.2735 22.5128 25.8993 23.1667 25.258 23.3351L8.43681 27.7531C7.79548 27.9215 7.12982 27.5407 6.95 26.9024Z" fill="#006DF6"/>
<path d="M3.48 29C2.55705 29 1.67189 28.6334 1.01927 27.9807C0.366642 27.3281 0 26.443 0 25.52V3.48C0 2.55705 0.366642 1.6719 1.01927 1.01927C1.67189 0.366642 2.55705 0 3.48 0H25.52C26.443 0 27.3281 0.366642 27.9807 1.01927C28.6334 1.6719 29 2.55705 29 3.48V25.52C29 26.443 28.6334 27.3281 27.9807 27.9807C27.3281 28.6334 26.443 29 25.52 29H3.48ZM1.16 3.48V25.52C1.16 26.1353 1.40443 26.7254 1.83951 27.1605C2.2746 27.5956 2.8647 27.84 3.48 27.84H25.52C26.1353 27.84 26.7254 27.5956 27.1605 27.1605C27.5956 26.7254 27.84 26.1353 27.84 25.52V3.48C27.84 2.8647 27.5956 2.2746 27.1605 1.83951C26.7254 1.40443 26.1353 1.16 25.52 1.16H3.48C2.8647 1.16 2.2746 1.40443 1.83951 1.83951C1.40443 2.2746 1.16 2.8647 1.16 3.48ZM7.02844 18.1668C6.97317 17.09 7.24496 16.0217 7.80809 15.1023C8.37122 14.1828 9.19935 13.4553 10.1836 13.0152C10.2041 13.0069 10.2263 13.0039 10.2482 13.0063C10.2702 13.0087 10.2911 13.0166 10.3093 13.0291C10.3275 13.0416 10.3422 13.0585 10.3523 13.0781C10.3623 13.0978 10.3674 13.1196 10.3669 13.1416V14.812C10.3676 14.8345 10.3628 14.8569 10.3529 14.8771C10.343 14.8973 10.3283 14.9148 10.3101 14.928C9.79171 15.2905 9.37236 15.777 9.0903 16.3431C8.80825 16.9092 8.67247 17.537 8.69536 18.1691C8.68389 19.2164 9.08804 20.2256 9.81926 20.9755C10.5505 21.7254 11.5491 22.1549 12.5964 22.1699C13.6218 22.1694 14.6056 21.7648 15.3347 21.044C16.0638 20.3231 16.4795 19.344 16.4917 18.3187C16.4929 18.2842 16.5073 18.2515 16.5319 18.2274C16.5565 18.2032 16.5895 18.1894 16.624 18.1888H17.0265C17.0505 18.1894 17.0739 18.1963 17.0943 18.209C17.1147 18.2216 17.1313 18.2395 17.1425 18.2607L17.8976 19.7444C17.9138 19.7755 17.9175 19.8115 17.9081 19.8453C17.5737 20.9996 16.8757 22.0152 15.9179 22.741C14.9601 23.4669 13.7935 23.8642 12.5918 23.874C11.0975 23.8541 9.67218 23.2418 8.62901 22.1717C7.58585 21.1016 7.01017 19.6611 7.02844 18.1668ZM19.8128 21.7558C19.713 21.7244 19.6205 21.6734 19.5408 21.6056C19.4611 21.5379 19.3958 21.4548 19.3488 21.3614L17.4696 17.6912C17.4591 17.6693 17.4427 17.6508 17.4221 17.6379C17.4016 17.625 17.3779 17.6181 17.3536 17.6181H12.0164C11.7257 17.6153 11.4477 17.4981 11.2427 17.2919C11.0377 17.0856 10.9223 16.8069 10.9214 16.5161V10.7961C10.9179 10.5019 11.0299 10.2181 11.2333 10.0056C11.4368 9.79302 11.7154 9.66871 12.0095 9.65932C12.1601 9.66052 12.309 9.69156 12.4476 9.75064C12.5862 9.80972 12.7116 9.89568 12.8168 10.0035C12.922 10.1114 13.0047 10.239 13.0603 10.379C13.1158 10.5191 13.1431 10.6687 13.1405 10.8193V12.3668C13.1402 12.3843 13.1434 12.4018 13.1499 12.4181C13.1564 12.4344 13.1661 12.4492 13.1784 12.4618C13.1907 12.4743 13.2054 12.4842 13.2216 12.491C13.2378 12.4978 13.2552 12.5013 13.2727 12.5013H17.3211C17.5417 12.5044 17.7522 12.5938 17.9075 12.7504C18.0628 12.907 18.1505 13.1183 18.1517 13.3388C18.1534 13.4519 18.1326 13.5641 18.0906 13.6691C18.0486 13.7741 17.9862 13.8697 17.9071 13.9504C17.8279 14.0311 17.7335 14.0953 17.6293 14.1392C17.5251 14.1832 17.4133 14.2061 17.3002 14.2065H13.2727C13.255 14.2068 13.2376 14.2106 13.2214 14.2176C13.2052 14.2247 13.1905 14.2349 13.1782 14.2476C13.166 14.2603 13.1563 14.2753 13.1498 14.2917C13.1433 14.3082 13.1402 14.3257 13.1405 14.3434V15.2088C13.1402 15.2264 13.1433 15.244 13.1498 15.2604C13.1563 15.2769 13.166 15.2919 13.1782 15.3046C13.1905 15.3173 13.2052 15.3275 13.2214 15.3345C13.2376 15.3416 13.255 15.3453 13.2727 15.3456H17.516C17.7106 15.3463 17.9011 15.4009 18.0666 15.5033C18.232 15.6056 18.3659 15.7518 18.4533 15.9256L20.8081 20.525C20.9095 20.7268 20.9294 20.9598 20.8638 21.1758C20.8324 21.282 20.7805 21.3809 20.7108 21.4669C20.6411 21.5529 20.5551 21.6243 20.4578 21.6769L20.4102 21.7024C20.2989 21.7634 20.174 21.7953 20.0471 21.7952C19.9675 21.7941 19.8884 21.7808 19.8128 21.7558ZM10.4133 7.39848C10.4211 7.07324 10.5246 6.75752 10.711 6.49088C10.8974 6.22423 11.1584 6.01852 11.4611 5.8995C11.7639 5.78049 12.0951 5.75346 12.4132 5.82182C12.7312 5.89017 13.0221 6.05086 13.2492 6.28376C13.4764 6.51666 13.6297 6.81141 13.6901 7.13109C13.7505 7.45077 13.7152 7.78116 13.5887 8.08087C13.4621 8.38059 13.25 8.6363 12.9788 8.81597C12.7075 8.99564 12.3893 9.09128 12.064 9.09092C11.8445 9.08819 11.6277 9.04226 11.4259 8.95572C11.2241 8.86919 11.0414 8.74377 10.8881 8.58661C10.7348 8.42944 10.614 8.24363 10.5325 8.03977C10.4511 7.83591 10.4106 7.618 10.4133 7.39848Z" stroke="#006DF6" stroke-width="4" mask="url(#path-1-inside-1_688_1502)"/>
<path d="M6.95 26.9024C6.77019 26.2642 7.14432 25.6103 7.78565 25.4418L24.6069 21.0239C25.2482 20.8555 25.9139 21.2363 26.0937 21.8745C26.2735 22.5128 25.8993 23.1667 25.258 23.3351L8.43681 27.7531C7.79548 27.9215 7.12982 27.5407 6.95 26.9024Z" stroke="#006DF6" stroke-width="4" mask="url(#path-1-inside-1_688_1502)"/>
</svg>
