<svg width="29" height="29" viewBox="0 0 29 29" fill="none" xmlns="http://www.w3.org/2000/svg">
<path d="M3.48 29C2.55705 29 1.6719 28.6334 1.01927 27.9807C0.366642 27.3281 0 26.443 0 25.52L0 3.48C0 2.55705 0.366642 1.6719 1.01927 1.01927C1.6719 0.366642 2.55705 0 3.48 0L25.52 0C26.443 0 27.3281 0.366642 27.9807 1.01927C28.6334 1.6719 29 2.55705 29 3.48V25.52C29 26.443 28.6334 27.3281 27.9807 27.9807C27.3281 28.6334 26.443 29 25.52 29H3.48ZM1.16 3.48V25.52C1.16 26.1353 1.40443 26.7254 1.83951 27.1605C2.2746 27.5956 2.8647 27.84 3.48 27.84H25.52C26.1353 27.84 26.7254 27.5956 27.1605 27.1605C27.5956 26.7254 27.84 26.1353 27.84 25.52V3.48C27.84 2.8647 27.5956 2.2746 27.1605 1.83951C26.7254 1.40443 26.1353 1.16 25.52 1.16H3.48C2.8647 1.16 2.2746 1.40443 1.83951 1.83951C1.40443 2.2746 1.16 2.8647 1.16 3.48ZM5.3592 23.316V19.488C5.35951 19.2027 5.47306 18.9292 5.6749 18.7276C5.87675 18.5259 6.15038 18.4127 6.43568 18.4127H9.599V15.2262C9.59961 14.9417 9.71282 14.669 9.91388 14.4677C10.1149 14.2664 10.3875 14.1529 10.672 14.152H13.8388V11.0014C13.8394 10.7162 13.9531 10.4429 14.1548 10.2413C14.3566 10.0398 14.6301 9.92643 14.9153 9.92612H18.0786V6.77904C18.0792 6.49383 18.1929 6.2205 18.3946 6.01894C18.5964 5.81738 18.8699 5.70403 19.1551 5.70372H23.0016C23.1778 5.71098 23.3444 5.78608 23.4665 5.91331C23.5886 6.04054 23.6567 6.21005 23.6567 6.38638C23.6567 6.56271 23.5886 6.73222 23.4665 6.85945C23.3444 6.98668 23.1778 7.06178 23.0016 7.06904H19.4439V10.2161C19.4436 10.5014 19.3301 10.7749 19.1282 10.9766C18.9264 11.1782 18.6527 11.2914 18.3674 11.2914H15.2041V14.4397C15.2035 14.7249 15.0899 14.9982 14.8881 15.1998C14.6863 15.4013 14.4128 15.5147 14.1276 15.515H10.9632V18.6946C10.9629 18.9797 10.8495 19.253 10.6479 19.4546C10.4463 19.6562 10.1729 19.7696 9.88784 19.7699H6.728V23.316C6.728 23.4056 6.71036 23.4943 6.67608 23.577C6.6418 23.6598 6.59156 23.735 6.52822 23.7983C6.46489 23.8616 6.38969 23.9119 6.30694 23.9462C6.22419 23.9804 6.13549 23.9981 6.04592 23.9981C5.95635 23.9981 5.86765 23.9804 5.7849 23.9462C5.70215 23.9119 5.62695 23.8616 5.56362 23.7983C5.50028 23.735 5.45004 23.6598 5.41576 23.577C5.38148 23.4943 5.36384 23.4056 5.36384 23.316H5.3592Z" fill="#006DF6"/>
</svg>
