<svg width="29" height="29" viewBox="0 0 29 29" fill="none" xmlns="http://www.w3.org/2000/svg">
<path d="M3.48 29C2.55705 29 1.6719 28.6334 1.01927 27.9807C0.366642 27.3281 0 26.443 0 25.52L0 3.48C0 2.55705 0.366642 1.67189 1.01927 1.01927C1.6719 0.366642 2.55705 0 3.48 0L25.52 0C26.443 0 27.3281 0.366642 27.9807 1.01927C28.6334 1.67189 29 2.55705 29 3.48V25.52C29 26.443 28.6334 27.3281 27.9807 27.9807C27.3281 28.6334 26.443 29 25.52 29H3.48ZM1.16 3.48V25.52C1.16 26.1353 1.40443 26.7254 1.83951 27.1605C2.2746 27.5956 2.8647 27.84 3.48 27.84H25.52C26.1353 27.84 26.7254 27.5956 27.1605 27.1605C27.5956 26.7254 27.84 26.1353 27.84 25.52V3.48C27.84 2.8647 27.5956 2.2746 27.1605 1.83951C26.7254 1.40443 26.1353 1.16 25.52 1.16H3.48C2.8647 1.16 2.2746 1.40443 1.83951 1.83951C1.40443 2.2746 1.16 2.8647 1.16 3.48ZM20.0019 23.5306V16.5706H19.669L19.6585 23.5422C19.6662 23.6592 19.65 23.7765 19.6109 23.887C19.5719 23.9975 19.5108 24.099 19.4313 24.1852C19.3519 24.2714 19.2557 24.3405 19.1487 24.3884C19.0418 24.4364 18.9262 24.462 18.8089 24.4639C18.6917 24.4658 18.5754 24.4439 18.4669 24.3994C18.3584 24.355 18.2601 24.289 18.1779 24.2054C18.0957 24.1218 18.0314 24.0224 17.9888 23.9131C17.9462 23.8039 17.9262 23.6872 17.9301 23.57L17.9208 11.5884L16.8768 13.1184C16.8059 13.2199 16.7107 13.302 16.5998 13.3571C16.4889 13.4122 16.366 13.4386 16.2423 13.434H13.4711C13.3797 13.4329 13.2894 13.4138 13.2053 13.3779C13.1213 13.3419 13.0452 13.2897 12.9813 13.2244C12.9174 13.159 12.8671 13.0817 12.8331 12.9968C12.7991 12.912 12.7821 12.8212 12.7832 12.7298C12.7843 12.6384 12.8033 12.5481 12.8393 12.4641C12.8752 12.3801 12.9274 12.3039 12.9928 12.2401C13.0582 12.1762 13.1355 12.1258 13.2204 12.0918C13.3052 12.0578 13.3959 12.0409 13.4873 12.042H15.885L17.2689 9.98412C17.425 9.72123 17.6485 9.50485 17.9163 9.35738C18.1841 9.20992 18.4864 9.13675 18.792 9.14544H21.5331C21.7914 9.14577 22.0469 9.19888 22.2839 9.30151C22.5209 9.40415 22.7344 9.55414 22.9114 9.74228C23.0884 9.93043 23.225 10.1528 23.3129 10.3956C23.4008 10.6385 23.4382 10.8967 23.4227 11.1546V15.8479C23.4326 15.9443 23.4219 16.0416 23.3915 16.1336C23.3611 16.2255 23.3115 16.31 23.2461 16.3815C23.1807 16.4529 23.1009 16.5097 23.012 16.5481C22.9231 16.5866 22.8271 16.6058 22.7302 16.6044C22.6334 16.6031 22.5379 16.5813 22.4501 16.5405C22.3622 16.4997 22.284 16.4407 22.2206 16.3675C22.1572 16.2943 22.1099 16.2085 22.082 16.1158C22.0541 16.023 22.0461 15.9254 22.0586 15.8294V11.5374H21.75V23.5689C21.7576 23.6851 21.7409 23.8016 21.701 23.911C21.6611 24.0204 21.5988 24.1204 21.5182 24.2044C21.4376 24.2884 21.3403 24.3547 21.2326 24.3991C21.1249 24.4435 21.0092 24.4649 20.8928 24.4621C20.7716 24.4644 20.6514 24.4416 20.5395 24.3951C20.4277 24.3485 20.3267 24.2793 20.243 24.1918C20.1592 24.1042 20.0946 24.0003 20.0531 23.8865C20.0116 23.7727 19.9942 23.6515 20.0019 23.5306ZM7.24188 16.276V16.2702H6.69668C6.64961 16.2697 6.60309 16.26 6.55977 16.2415C6.51646 16.2231 6.4772 16.1963 6.44424 16.1627C6.41128 16.1291 6.38526 16.0893 6.36767 16.0457C6.35008 16.002 6.34126 15.9553 6.34172 15.9082V10.8727H7.70008C7.74542 10.869 7.78773 10.8485 7.81858 10.815C7.84943 10.7816 7.86656 10.7378 7.86656 10.6923C7.86656 10.6468 7.84943 10.603 7.81858 10.5696C7.78773 10.5361 7.74542 10.5156 7.70008 10.5119H6.34288V8.5318C6.34226 8.43694 6.37928 8.34569 6.44581 8.27807C6.51235 8.21045 6.60298 8.17196 6.69784 8.17104H7.685C7.77576 8.17152 7.86381 8.20207 7.93538 8.25789C8.00694 8.31372 8.058 8.39168 8.08056 8.4796C8.14215 8.73202 8.2867 8.95645 8.49104 9.11693C8.69538 9.27741 8.94768 9.36463 9.2075 9.36463C9.46732 9.36463 9.71962 9.27741 9.92396 9.11693C10.1283 8.95645 10.2729 8.73202 10.3344 8.4796C10.3581 8.39141 10.4101 8.31343 10.4824 8.25768C10.5547 8.20193 10.6433 8.17148 10.7346 8.17104H11.6302C11.6771 8.17149 11.7234 8.18119 11.7666 8.19956C11.8098 8.21794 11.8489 8.24464 11.8818 8.27814C11.9146 8.31164 11.9406 8.35128 11.9581 8.39481C11.9756 8.43833 11.9844 8.48488 11.984 8.5318V10.5108H10.5722C10.5269 10.5144 10.4846 10.535 10.4537 10.5684C10.4229 10.6018 10.4058 10.6457 10.4058 10.6911C10.4058 10.7366 10.4229 10.7804 10.4537 10.8139C10.4846 10.8473 10.5269 10.8679 10.5722 10.8715H11.984V15.9071C11.9846 15.9541 11.9759 16.0008 11.9584 16.0444C11.941 16.0881 11.9151 16.1279 11.8822 16.1615C11.8493 16.1951 11.8101 16.2219 11.7669 16.2404C11.7236 16.2588 11.6772 16.2685 11.6302 16.269H11.4272V16.2748L7.24188 16.276ZM8.236 10.6929C8.23585 10.7163 8.24032 10.7396 8.24915 10.7613C8.25799 10.7831 8.27102 10.8028 8.2875 10.8195C8.30398 10.8362 8.32359 10.8495 8.34521 10.8586C8.36682 10.8678 8.39002 10.8725 8.41348 10.8727H9.86C9.90534 10.869 9.94765 10.8485 9.9785 10.815C10.0094 10.7816 10.0265 10.7378 10.0265 10.6923C10.0265 10.6468 10.0094 10.603 9.9785 10.5696C9.94765 10.5361 9.90534 10.5156 9.86 10.5119H8.41928C8.39528 10.5115 8.37143 10.5158 8.34913 10.5247C8.32684 10.5336 8.30655 10.5469 8.28947 10.5637C8.27239 10.5806 8.25886 10.6007 8.24967 10.6229C8.24049 10.6451 8.23584 10.6689 8.236 10.6929ZM18.3582 7.13516C18.3634 6.83238 18.4579 6.53789 18.6299 6.2886C18.8018 6.0393 19.0435 5.84631 19.3246 5.7338C19.6058 5.62129 19.9139 5.59427 20.2103 5.65613C20.5067 5.71799 20.7783 5.86597 20.991 6.08154C21.2037 6.2971 21.348 6.57065 21.4059 6.86789C21.4638 7.16514 21.4326 7.47285 21.3163 7.75247C21.2001 8.03208 21.0038 8.27115 20.7523 8.43971C20.5007 8.60826 20.2049 8.69881 19.9021 8.7C19.6982 8.69879 19.4966 8.65729 19.3088 8.5779C19.1209 8.4985 18.9507 8.38276 18.8077 8.23734C18.6648 8.09193 18.552 7.91969 18.4758 7.73054C18.3997 7.54139 18.3617 7.33905 18.364 7.13516H18.3582Z" fill="#006DF6"/>
<path d="M3.48 29C2.55705 29 1.6719 28.6334 1.01927 27.9807C0.366642 27.3281 0 26.443 0 25.52L0 3.48C0 2.55705 0.366642 1.67189 1.01927 1.01927C1.6719 0.366642 2.55705 0 3.48 0L25.52 0C26.443 0 27.3281 0.366642 27.9807 1.01927C28.6334 1.67189 29 2.55705 29 3.48V25.52C29 26.443 28.6334 27.3281 27.9807 27.9807C27.3281 28.6334 26.443 29 25.52 29H3.48ZM1.16 3.48V25.52C1.16 26.1353 1.40443 26.7254 1.83951 27.1605C2.2746 27.5956 2.8647 27.84 3.48 27.84H25.52C26.1353 27.84 26.7254 27.5956 27.1605 27.1605C27.5956 26.7254 27.84 26.1353 27.84 25.52V3.48C27.84 2.8647 27.5956 2.2746 27.1605 1.83951C26.7254 1.40443 26.1353 1.16 25.52 1.16H3.48C2.8647 1.16 2.2746 1.40443 1.83951 1.83951C1.40443 2.2746 1.16 2.8647 1.16 3.48ZM20.0019 23.5306V16.5706H19.669L19.6585 23.5422C19.6662 23.6592 19.65 23.7765 19.6109 23.887C19.5719 23.9975 19.5108 24.099 19.4313 24.1852C19.3519 24.2714 19.2557 24.3405 19.1487 24.3884C19.0418 24.4364 18.9262 24.462 18.8089 24.4639C18.6917 24.4658 18.5754 24.4439 18.4669 24.3994C18.3584 24.355 18.2601 24.289 18.1779 24.2054C18.0957 24.1218 18.0314 24.0224 17.9888 23.9131C17.9462 23.8039 17.9262 23.6872 17.9301 23.57L17.9208 11.5884L16.8768 13.1184C16.8059 13.2199 16.7107 13.302 16.5998 13.3571C16.4889 13.4122 16.366 13.4386 16.2423 13.434H13.4711C13.3797 13.4329 13.2894 13.4138 13.2053 13.3779C13.1213 13.3419 13.0452 13.2897 12.9813 13.2244C12.9174 13.159 12.8671 13.0817 12.8331 12.9968C12.7991 12.912 12.7821 12.8212 12.7832 12.7298C12.7843 12.6384 12.8033 12.5481 12.8393 12.4641C12.8752 12.3801 12.9274 12.3039 12.9928 12.2401C13.0582 12.1762 13.1355 12.1258 13.2204 12.0918C13.3052 12.0578 13.3959 12.0409 13.4873 12.042H15.885L17.2689 9.98412C17.425 9.72123 17.6485 9.50485 17.9163 9.35738C18.1841 9.20992 18.4864 9.13675 18.792 9.14544H21.5331C21.7914 9.14577 22.0469 9.19888 22.2839 9.30151C22.5209 9.40415 22.7344 9.55414 22.9114 9.74228C23.0884 9.93043 23.225 10.1528 23.3129 10.3956C23.4008 10.6385 23.4382 10.8967 23.4227 11.1546V15.8479C23.4326 15.9443 23.4219 16.0416 23.3915 16.1336C23.3611 16.2255 23.3115 16.31 23.2461 16.3815C23.1807 16.4529 23.1009 16.5097 23.012 16.5481C22.9231 16.5866 22.8271 16.6058 22.7302 16.6044C22.6334 16.6031 22.5379 16.5813 22.4501 16.5405C22.3622 16.4997 22.284 16.4407 22.2206 16.3675C22.1572 16.2943 22.1099 16.2085 22.082 16.1158C22.0541 16.023 22.0461 15.9254 22.0586 15.8294V11.5374H21.75V23.5689C21.7576 23.6851 21.7409 23.8016 21.701 23.911C21.6611 24.0204 21.5988 24.1204 21.5182 24.2044C21.4376 24.2884 21.3403 24.3547 21.2326 24.3991C21.1249 24.4435 21.0092 24.4649 20.8928 24.4621C20.7716 24.4644 20.6514 24.4416 20.5395 24.3951C20.4277 24.3485 20.3267 24.2793 20.243 24.1918C20.1592 24.1042 20.0946 24.0003 20.0531 23.8865C20.0116 23.7727 19.9942 23.6515 20.0019 23.5306ZM7.24188 16.276V16.2702H6.69668C6.64961 16.2697 6.60309 16.26 6.55977 16.2415C6.51646 16.2231 6.4772 16.1963 6.44424 16.1627C6.41128 16.1291 6.38526 16.0893 6.36767 16.0457C6.35008 16.002 6.34126 15.9553 6.34172 15.9082V10.8727H7.70008C7.74542 10.869 7.78773 10.8485 7.81858 10.815C7.84943 10.7816 7.86656 10.7378 7.86656 10.6923C7.86656 10.6468 7.84943 10.603 7.81858 10.5696C7.78773 10.5361 7.74542 10.5156 7.70008 10.5119H6.34288V8.5318C6.34226 8.43694 6.37928 8.34569 6.44581 8.27807C6.51235 8.21045 6.60298 8.17196 6.69784 8.17104H7.685C7.77576 8.17152 7.86381 8.20207 7.93538 8.25789C8.00694 8.31372 8.058 8.39168 8.08056 8.4796C8.14215 8.73202 8.2867 8.95645 8.49104 9.11693C8.69538 9.27741 8.94768 9.36463 9.2075 9.36463C9.46732 9.36463 9.71962 9.27741 9.92396 9.11693C10.1283 8.95645 10.2729 8.73202 10.3344 8.4796C10.3581 8.39141 10.4101 8.31343 10.4824 8.25768C10.5547 8.20193 10.6433 8.17148 10.7346 8.17104H11.6302C11.6771 8.17149 11.7234 8.18119 11.7666 8.19956C11.8098 8.21794 11.8489 8.24464 11.8818 8.27814C11.9146 8.31164 11.9406 8.35128 11.9581 8.39481C11.9756 8.43833 11.9844 8.48488 11.984 8.5318V10.5108H10.5722C10.5269 10.5144 10.4846 10.535 10.4537 10.5684C10.4229 10.6018 10.4058 10.6457 10.4058 10.6911C10.4058 10.7366 10.4229 10.7804 10.4537 10.8139C10.4846 10.8473 10.5269 10.8679 10.5722 10.8715H11.984V15.9071C11.9846 15.9541 11.9759 16.0008 11.9584 16.0444C11.941 16.0881 11.9151 16.1279 11.8822 16.1615C11.8493 16.1951 11.8101 16.2219 11.7669 16.2404C11.7236 16.2588 11.6772 16.2685 11.6302 16.269H11.4272V16.2748L7.24188 16.276ZM8.236 10.6929C8.23585 10.7163 8.24032 10.7396 8.24915 10.7613C8.25799 10.7831 8.27102 10.8028 8.2875 10.8195C8.30398 10.8362 8.32359 10.8495 8.34521 10.8586C8.36682 10.8678 8.39002 10.8725 8.41348 10.8727H9.86C9.90534 10.869 9.94765 10.8485 9.9785 10.815C10.0094 10.7816 10.0265 10.7378 10.0265 10.6923C10.0265 10.6468 10.0094 10.603 9.9785 10.5696C9.94765 10.5361 9.90534 10.5156 9.86 10.5119H8.41928C8.39528 10.5115 8.37143 10.5158 8.34913 10.5247C8.32684 10.5336 8.30655 10.5469 8.28947 10.5637C8.27239 10.5806 8.25886 10.6007 8.24967 10.6229C8.24049 10.6451 8.23584 10.6689 8.236 10.6929ZM18.3582 7.13516C18.3634 6.83238 18.4579 6.53789 18.6299 6.2886C18.8018 6.0393 19.0435 5.84631 19.3246 5.7338C19.6058 5.62129 19.9139 5.59427 20.2103 5.65613C20.5067 5.71799 20.7783 5.86597 20.991 6.08154C21.2037 6.2971 21.348 6.57065 21.4059 6.86789C21.4638 7.16514 21.4326 7.47285 21.3163 7.75247C21.2001 8.03208 21.0038 8.27115 20.7523 8.43971C20.5007 8.60826 20.2049 8.69881 19.9021 8.7C19.6982 8.69879 19.4966 8.65729 19.3088 8.5779C19.1209 8.4985 18.9507 8.38276 18.8077 8.23734C18.6648 8.09193 18.552 7.91969 18.4758 7.73054C18.3997 7.54139 18.3617 7.33905 18.364 7.13516H18.3582Z" fill="#006DF6"/>
</svg>
