<svg width="29" height="29" viewBox="0 0 29 29" fill="none" xmlns="http://www.w3.org/2000/svg">
<path d="M3.48 29C2.55705 29 1.67189 28.6334 1.01927 27.9807C0.366642 27.3281 0 26.443 0 25.52L0 3.48C0 2.55705 0.366642 1.67189 1.01927 1.01927C1.67189 0.366642 2.55705 0 3.48 0L25.52 0C26.443 0 27.3281 0.366642 27.9807 1.01927C28.6334 1.67189 29 2.55705 29 3.48V25.52C29 26.443 28.6334 27.3281 27.9807 27.9807C27.3281 28.6334 26.443 29 25.52 29H3.48ZM1.16 3.48V25.52C1.16 26.1353 1.40443 26.7254 1.83951 27.1605C2.2746 27.5956 2.8647 27.84 3.48 27.84H25.52C26.1353 27.84 26.7254 27.5956 27.1605 27.1605C27.5956 26.7254 27.84 26.1353 27.84 25.52V3.48C27.84 2.8647 27.5956 2.2746 27.1605 1.83951C26.7254 1.40443 26.1353 1.16 25.52 1.16H3.48C2.8647 1.16 2.2746 1.40443 1.83951 1.83951C1.40443 2.2746 1.16 2.8647 1.16 3.48ZM14.3724 22.7859V18.3396C14.3726 18.3218 14.3692 18.3042 14.3625 18.2878C14.3558 18.2713 14.3459 18.2563 14.3334 18.2437C14.3209 18.2311 14.306 18.2211 14.2896 18.2142C14.2732 18.2074 14.2556 18.2039 14.2378 18.2039H10.237C9.82756 18.2129 9.42848 18.0747 9.11235 17.8143C8.79622 17.554 8.58404 17.1888 8.5144 16.7852L7.511 11.7601C7.47063 11.5401 7.47398 11.3143 7.52087 11.0957C7.56775 10.877 7.65725 10.6697 7.78424 10.4856C7.91124 10.3015 8.07325 10.1443 8.26103 10.0228C8.44881 9.90131 8.65867 9.81801 8.87864 9.77764C9.09861 9.73727 9.32438 9.74062 9.54305 9.78751C9.76172 9.83439 9.96902 9.92389 10.1531 10.0509C10.3372 10.1779 10.4945 10.3399 10.6159 10.5277C10.7374 10.7154 10.8207 10.9253 10.8611 11.1453L11.6882 15.2517C11.7005 15.3133 11.7339 15.3687 11.7825 15.4085C11.8312 15.4483 11.8921 15.4699 11.955 15.4698H14.971C15.1622 15.4672 15.352 15.5033 15.5289 15.5759C15.7058 15.6486 15.8662 15.7562 16.0004 15.8924C16.1347 16.0286 16.24 16.1906 16.3101 16.3685C16.3802 16.5464 16.4135 16.7367 16.4082 16.9279V22.8033C16.418 22.9413 16.399 23.08 16.3525 23.2103C16.3059 23.3406 16.2327 23.4599 16.1376 23.5604C16.0425 23.661 15.9275 23.7407 15.8 23.7945C15.6724 23.8482 15.5351 23.8749 15.3967 23.8728C15.2561 23.8748 15.1166 23.8475 14.9871 23.7927C14.8576 23.7379 14.741 23.6567 14.6445 23.5544C14.5481 23.4521 14.474 23.3308 14.427 23.1983C14.3799 23.0658 14.3609 22.925 14.3712 22.7847L14.3724 22.7859ZM6.09232 20.4253C5.9242 20.4082 5.76839 20.3294 5.65508 20.204C5.54178 20.0786 5.47905 19.9157 5.47905 19.7467C5.47905 19.5777 5.54178 19.4147 5.65508 19.2894C5.76839 19.164 5.9242 19.0851 6.09232 19.0681H12.4654C12.6335 19.0851 12.7893 19.164 12.9026 19.2894C13.0159 19.4147 13.0786 19.5777 13.0786 19.7467C13.0786 19.9157 13.0159 20.0786 12.9026 20.204C12.7893 20.3294 12.6335 20.4082 12.4654 20.4253H6.09232ZM16.2713 9.309C16.2713 8.57513 16.4889 7.85773 16.8964 7.24745C17.304 6.63716 17.8833 6.16139 18.5612 5.88023C19.2391 5.59907 19.9851 5.52516 20.7049 5.66782C21.4248 5.81049 22.0862 6.16333 22.6056 6.68177C23.125 7.20021 23.4791 7.86097 23.6231 8.58057C23.7672 9.30017 23.6946 10.0463 23.4148 10.7247C23.1349 11.4031 22.6602 11.9833 22.0507 12.392C21.4411 12.8007 20.7241 13.0196 19.9903 13.021C19.0049 13.0213 18.0596 12.6304 17.3623 11.9341C16.6649 11.2379 16.2726 10.2933 16.2713 9.30784V9.309ZM16.9511 9.309C16.9511 9.90982 17.1292 10.4971 17.463 10.9967C17.7968 11.4963 18.2712 11.8857 18.8262 12.1157C19.3813 12.3456 19.9921 12.4059 20.5814 12.2887C21.1707 12.1716 21.712 11.8824 22.1369 11.4576C22.5619 11.0329 22.8513 10.4916 22.9686 9.9024C23.086 9.31316 23.026 8.70234 22.7962 8.1472C22.5665 7.59205 22.1773 7.11749 21.6778 6.78353C21.1784 6.44956 20.5911 6.27119 19.9903 6.27096C19.1847 6.27157 18.4123 6.59161 17.8423 7.16091C17.2724 7.7302 16.9515 8.50228 16.9499 9.30784L16.9511 9.309ZM18.7804 10.092C18.7091 10.0893 18.6405 10.0636 18.5851 10.0186C18.5296 9.97364 18.4903 9.91186 18.473 9.8426C18.4538 9.75986 18.4682 9.6729 18.513 9.60073C18.5578 9.52857 18.6293 9.47706 18.712 9.45748L19.8511 9.19648V7.29176C19.8511 7.20669 19.8849 7.12511 19.945 7.06496C20.0052 7.00481 20.0868 6.97102 20.1718 6.97102C20.2569 6.97102 20.3385 7.00481 20.3986 7.06496C20.4588 7.12511 20.4926 7.20669 20.4926 7.29176V9.44008C20.4936 9.5139 20.4693 9.58585 20.4237 9.64391C20.3781 9.70197 20.314 9.74262 20.242 9.75908L18.8628 10.092H18.7804ZM7.04816 7.51216C7.04816 7.13228 7.16079 6.76093 7.37182 6.44505C7.58285 6.12918 7.88279 5.88296 8.23373 5.73754C8.58467 5.59211 8.97086 5.554 9.34345 5.62803C9.71605 5.70205 10.0583 5.88489 10.327 6.15343C10.5957 6.42196 10.7788 6.76414 10.853 7.13669C10.9273 7.50924 10.8894 7.89545 10.7442 8.24648C10.599 8.59751 10.3529 8.8976 10.0372 9.10882C9.72144 9.32003 9.35016 9.43289 8.97028 9.43312C8.46127 9.43129 7.97361 9.22835 7.61357 8.86853C7.25353 8.50871 7.0503 8.02117 7.04816 7.51216Z" fill="#006DF6"/>
</svg>
